<?xml version="1.0" encoding="UTF-8"?>
<svg id="Layer_1" data-name="Layer 1" xmlns="http://www.w3.org/2000/svg" viewBox="0 0 499.8 63.46">
  <path d="M46.92,52.63c-1.11,2.37-2.65,4.36-4.62,5.97-1.98,1.61-4.34,2.84-7.08,3.69-2.74.85-5.78,1.27-9.12,1.27-4.69,0-9.28-.81-13.79-2.42-4.51-1.61-8.61-4.08-12.3-7.42l7.99-9.58c2.81,2.29,5.69,4.1,8.65,5.45,2.96,1.35,6.19,2.02,9.71,2.02,2.81,0,5-.51,6.54-1.54,1.55-1.02,2.33-2.44,2.33-4.26v-.34c0-.88-.16-1.65-.48-2.32-.33-.67-.94-1.3-1.85-1.89-.91-.59-2.17-1.17-3.78-1.75-1.62-.59-3.71-1.2-6.29-1.85-3.11-.76-5.92-1.61-8.45-2.54-2.52-.93-4.66-2.09-6.42-3.47-1.76-1.37-3.13-3.09-4.09-5.14-.97-2.05-1.45-4.6-1.45-7.63v-.35c0-2.81.52-5.34,1.57-7.6,1.05-2.26,2.52-4.2,4.41-5.84,1.89-1.64,4.15-2.9,6.77-3.78,2.62-.88,5.52-1.32,8.68-1.32,4.51,0,8.65.67,12.43,2.02,3.78,1.35,7.25,3.28,10.41,5.8l-7.03,10.19c-2.75-1.88-5.45-3.35-8.08-4.43s-5.27-1.63-7.91-1.63-4.61.51-5.93,1.54c-1.32,1.03-1.98,2.3-1.98,3.82v.34c0,1,.19,1.86.57,2.59.38.73,1.07,1.39,2.07,1.97,1,.59,2.36,1.14,4.09,1.67,1.73.53,3.92,1.14,6.56,1.84,3.11.82,5.88,1.74,8.32,2.76,2.43,1.03,4.49,2.26,6.16,3.69,1.67,1.44,2.94,3.12,3.78,5.04.85,1.93,1.27,4.24,1.27,6.93v.35c0,3.05-.55,5.75-1.66,8.13h-.01ZM134.26,50.47v12.24h-47.29V.95h46.74v12.24h-32.83v12.24h28.93v12.24h-28.93v12.8h33.38ZM221.61,62.71V22.47l-17.44,26.32h-.35l-17.26-26.06v39.97h-13.35V.95h14.65l16.23,26.11L220.32.95h14.65v61.76h-13.36ZM323.15,32.03c-1.29,2.72-3.08,4.99-5.35,6.82-2.27,1.83-4.92,3.2-7.96,4.12-3.04.92-6.29,1.37-9.77,1.37h-10.6v18.36h-13.35V.95h25.28c3.71,0,7.03.52,9.94,1.55,2.92,1.04,5.39,2.5,7.42,4.39,2.03,1.89,3.59,4.15,4.68,6.77,1.09,2.63,1.63,5.54,1.63,8.72v.18c0,3.6-.65,6.76-1.94,9.47h0ZM311.75,22.56c0-3.06-.99-5.39-2.98-6.98-1.99-1.59-4.7-2.39-8.14-2.39h-10.58v18.92h10.85c3.44,0,6.1-.9,8-2.7,1.89-1.8,2.85-4.02,2.85-6.67v-.18h0ZM400.27,40.65l15.15,22.05h-15.46l-13.41-20.03h-10.82v20.03h-13.91V.95h28.35c7.86,0,13.88,2.09,18.07,6.27,3.54,3.53,5.32,8.24,5.32,14.12v.18c0,5-1.23,9.07-3.68,12.22-2.45,3.15-5.66,5.46-9.61,6.92h0ZM399.65,22.04c0-2.95-.95-5.17-2.86-6.65-1.91-1.47-4.56-2.21-7.95-2.21h-13.67v17.81h13.94c3.39,0,6-.8,7.82-2.39,1.82-1.59,2.73-3.72,2.73-6.38v-.18h0ZM499.8,50.47v12.24h-47.29V.95h46.74v12.24h-33.38v12.24h28.93v12.24h-28.93v12.8h33.94Z"/>
</svg>