<?xml version="1.0" encoding="UTF-8"?><svg id="Layer_2" xmlns="http://www.w3.org/2000/svg" viewBox="0 0 335.13 334.23"><defs><style>.cls-1{stroke-width:0px;}</style></defs><g id="Laag_1"><path class="cls-1" d="m129.35,306.5c.03.27.07.54.09.79t-.03-.01c-.21-.16-.35-.39-.46-.63,0-.03-.01-.07-.03-.09-.03-.17-.07-.34-.16-.48-.34-.78-1.15-1.09-1.93-1.41-.27-.11-.55-.21-.82-.31-.16-.05-.32-.11-.47-.15-.44-.13-.88-.25-1.33-.35-.12-.03-.24-.05-.36-.08-.08-.03-.15-.07-.23-.09-4.16-1.77-8.73-2.64-12.41-5.48-.03-.09-.05-.16-.05-.24,0-.07,0-.12.01-.16h.01c.01-.23.15-.4.35-.55.03-.03.05-.04.08-.05h0l.04-.04c.07-.01.12-.03.19-.05.21-.05.43-.12.63-.19.71-.24,1.38-.56,2-1.01.04-.04.09-.08.15-.12.07-.04.12-.09.19-.15,3.54,2.52,7.36,1.35,11.1.83,5.31-.74,10.63-1.43,15.8-2.86,1.22-.34,2.49-.63,3.81-1.61-2.04-1.09-3.89-1.09-5.74-1.13-2.35-.05-4.72.27-7.02-.31-.82-.2-1.76-.47-1.89-1.46-.12-1.02.7-1.45,1.5-1.81.34-.15.71-.25,1.03-.43.58-.32,1.34-.64,1.09-1.42-.27-.8-1.1-.52-1.73-.44-.83.11-1.66.31-2.49.43-1.19.19-2.48.19-2.77-1.21-.31-1.53.91-2.23,2.18-2.4,3.38-.5,6.29-2.02,8.91-4.02,5.66-4.28,11.97-7.4,18.22-10.63,1.18-.62,2.35-1.23,3.34-2.1.43-.38.83-.84.58-1.46-.23-.58-.79-.75-1.38-.8-.98-.08-1.84.31-2.72.63-2.57.91-5.12,1.89-7.83,2.36-.91.17-2.02.32-2.51-.62,2.8.32,5.13-.84,7.53-1.55,1.17-.34,2.29-.8,3.42-1.23,1.73-.64,3.7-1.33,4.64.82.91,2.06-1.26,2.64-2.55,3.35-7.49,4.18-15.29,7.83-22.13,13.18-2.05,1.6-4.68,2.73-7.52,2.73-1.19.01-2.14.58-1.92,1.77.21,1.1,1.29.75,2.13.55,1.27-.29,2.56-.58,3.86-.78.84-.15,1.64-.2,1.96.98.31,1.15-.16,1.78-1.05,2.28-.24.13-.55.16-.79.29-.97.54-3.03.03-2.73,1.65.2,1.1,2.12.68,3.27.76,3.46.27,6.94.46,10.41.55,1.09.03,1.96.25,2.09,1.3.13,1.13-1.03,1.19-1.78,1.43-8.2,2.77-16.77,3.61-25.31,4.69-2.21.27-3.58-.8-5.08-1.96-.08,2.27-1.7,1.39-2.88,1.43-.16.19-.31.38-.46.56,4.26,1.73,8.53,3.47,12.8,5.2,1.06.09,2.1.23,2.91,1.03.71.79,3.26-.21,2.23,2.27Z"/><path class="cls-1" d="m114.68,9.42c-22.65,7.65-42.72,19.77-60.32,36.1-15.64,14.53-27.93,31.47-37.48,50.45-3.83,7.64-6.97,15.5-9.38,23.56-.05.13-.09.27-.12.4-2.83,9.45-4.68,19.19-5.56,29.21-.15,1.6-.5,3.15-.59,4.76-.04.75.07,1.81-1.22,1.81,1.23-2.18.79-4.66,1.03-6.98,2.59-25.33,10.92-48.56,24.73-69.96,10.68-16.58,23.55-31.14,39.09-43.26,10.8-8.42,22.4-15.6,35.02-21.07,10.76-4.65,21.74-8.42,33.24-10.8C146.75.82,160.48-.5,174.4.17c13.31.63,26.45,2.49,39.14,6.58,4.64,1.5,9.56,2.33,13.89,5.01,1.06.66,2.88.71,4.22,1.49,1.57,1.09,3.74.88,5.13,2.35,5.17,1.89,9.88,4.73,14.62,7.49,4.69,2.73,9.16,5.79,13.61,8.87.78.04,1.31.44,1.64,1.14,6.69,5.03,13.07,10.43,19.01,16.33,9.52,9.45,17.88,19.85,24.99,31.26,1.21,1.93,2.21,3.75.86,6.19-.88,1.57.68,2.05,1.8,1.74,1.57-.44,2.13.2,2.79,1.42,3.08,5.68,5.52,11.63,8.08,17.55.7,1.6.27,2.29-1.34,2.95-1.29.52-3.26.21-3.65,2.27.09.11.09.21.03.34,1.92.39,3.26-1.09,4.89-1.62,1.14-.36,1.47-.19,1.76.75,1.69,5.63,3.36,11.26,5.04,16.89.05.17.16.42.09.55-2.02,3.83-4.06,7.68-7.04,10.88-.56.59-1.64.36-1.03,1.88.28.68-1.05,2.02-1.68,3.04-.31.52-.82.83-1.41.76-.79-.11-.55-.82-.67-1.33-1.31-5.72-2.64-11.43-4.48-17.02-.17-.55-.21-1.1-1.02-1.38-.46,5.95-1.65,11.73-3.54,17.36-.4,1.18-.59,2.49-1.69,3.34-.56.21-.35,1.15-1.1,1.19-.13.91.32,1.86-.17,2.75-.56,1.14-1.14,2.29-1.73,3.43,0,.01-.17-.01-.21-.05-.12-.12-.21-.28-.31-.42l-.5.5c0,3.93-2.88,6.26-5,9.03-2.83,4.84-7.01,8.47-11.25,11.98-12.8,10.58-27.93,13.86-44.1,13.75-3.97.48-7.69-.27-11.25-2.47,4.83-.11,9.07-2.04,13.46-3.53.36-.03.74-.05,1.1-.08-.13-1.18.09-2.55-1.53-2.94-1.94-.46-3.99-.95-5.68.47-3.04,2.56-5.74,2.86-9.09.68.75-.97,1.98-1.01,2.91-1.45-.21.5-.54,1.02-.99,1.54,2.43.68,4.56.8,6.54-.99,1.8-1.62,3.95-1.66,6.1-.88,1.69.6,2.71,1.72,1.96,3.69-.07.07-.13.13-.2.17-.19.16-.39.27-.6.35h-.01c-.05.03-.12.05-.17.07-.04.01-.08.03-.12.04-.07.01-.12.03-.19.05-3.85,1.02-7.32,3.53-11.63,2.99,3,1.47,6.13,1.85,9.33,1.72h.07c.11-.01.2-.01.31-.01,11.54-.56,22.96-1.51,33.42-7.27,8.26-4.56,15.43-10.31,21.04-17.92.09-.15.2-.31.31-.46.08-.13.17-.28.28-.42,1.76-2.53,3.87-4.87,4.54-8.02.05-.13.11-.27.19-.39.04-.08.09-.16.16-.23.07-.11.17-.2.29-.29.01,0,.03-.01.04-.03.05-.03.11-.07.16-.11,1.07-.67,1.19-1.96,1.69-2.99.01-.01.01-.04.03-.05.03-.12.04-.25.05-.38.11-.64.13-1.3.35-1.93.07-.16.13-.32.21-.47.09-.16.19-.32.28-.47.13-.2.27-.39.42-.58.05-.08.11-.15.17-.23,0-.01.01-.01.01-.03,2.91-5.48,3.79-11.51,4.73-17.52.04-.28.01-.58.05-.84.13-.9-.11-2.24,1.01-2.35,1.03-.09,1.27,1.21,1.55,2.09,1.5,4.75,2.94,9.5,3.93,14.38.16.78.09,1.98,1.09,2.08,1.15.09,1.49-1.1,1.57-2,.16-1.78,1.81-2.29,2.64-3.47,1.85-2.61,3.44-5.38,4.97-8.18.59-1.07.47-2.18.15-3.28-1.25-4.24-2.4-8.48-3.71-12.71-.68-2.2-1.76-2.6-3.71-1.7-.92.42-1.86.98-2.96.52-.15-.09-.25-.2-.35-.34-.03-.03-.05-.07-.07-.11-.04-.05-.07-.12-.09-.19v-.03s-.01-.09-.01-.13c-.12-1.82,1.43-2.16,2.65-2.57,1.94-.64,2.49-1.51,1.58-3.53-2.25-4.96-4.37-9.99-6.85-14.85-.78-1.51-1.61-2.69-3.5-2.8-1.57-.08-2.18-1.1-1.66-2.55.76-2.12-.01-3.82-1.09-5.58-8.2-13.39-18.38-25.17-29.82-35.86-4.33-4.05-9.06-7.61-13.62-11.41-.17-.19-.36-.36-.56-.52-.28-.24-.6-.46-.94-.62-.12-.08-.24-.13-.38-.19-4.13-2.4-7.95-5.27-12.01-7.77-5.04-3.11-10.35-5.7-15.63-8.32-.15-.07-.29-.15-.44-.21-.03-.01-.05-.03-.08-.05h-.03s-.09-.05-.13-.08c-.01,0-.01-.01-.03-.01-1.34-.75-2.86-1.07-4.24-1.7-.15-.05-.29-.12-.43-.2-.19-.09-.38-.2-.56-.31-5.08-1.54-10.04-3.5-15.08-5.15-4.53-1.47-9.05-3.03-13.7-4.03-8.74-1.88-17.59-2.87-26.53-3.49-20.98-1.42-41.31,1.73-61.07,8.39Z"/><path class="cls-1" d="m277.42,296.94c.56.87-.75,1.26-1.34,1.73-20.41,16.53-43.74,26.79-69.37,31.94-7.91,1.58-15.9,2.83-23.99,3.06-.51.01-1.17-.24-1.38.56.07-1.46,1.26-1.19,2.09-1.25,10.16-.68,20.17-2.29,30.07-4.65,18-4.3,34.82-11.38,50.28-21.63,4.07-2.71,8.03-5.54,11.78-8.71-4.46,2-8.93,4.05-13.16,6.47-8.77,5.03-18.19,8.02-28,10.09-3.2.67-6.45,1.33-9.36,2.99-.04.01-.08.01-.12.01h-.05c-.13,0-.28-.01-.42-.03-.13,0-.27-.03-.42-.05-.11-.03-.23-.05-.35-.08-2.1-.74-2.01-2.27-1.21-3.86.7-1.39,1.68-2.64,2.79-3.55-5.54,1.58-11.25,2.59-16.98,3.49-10.13,1.61-20.35,2.17-30.59,1.72-7.59-.34-15.15-1.27-22.64-2.56-1.72-.29-3.24-.44-4.83.64-1.19.83-2.39.76-2.29-1.26.03-.67-.43-1.06-1.03-1.15-5.28-.87-10.19-3.28-15.52-3.94-.16.05-.32.11-.47.16-.17.05-.34.12-.51.16-.07.03-.13.05-.2.07h-.04c-.08.03-.16.04-.23.03-.13.03-.25.01-.38-.03.15-.04.27-.12.36-.25.21-.17.42-.35.63-.51.63-1.27,1.65-.64,2.44-.38,5.48,1.86,11.1,3.16,16.7,4.56.39,1.33-1.39,1.35-1.37,2.43.46.34.99.27,1.25-.12,1.73-2.67,4.2-1.53,6.37-1.14,23.04,4.18,45.87,3.35,68.55-2.47.59-.15,1.22-.19,2.13-.32-1.33,1.69-2.56,3.1-3.59,4.62-.98,1.45-1.33,2.84,1.18,3.03.24.24.48.5.72.75.78-1.58,2.27-2.05,3.81-2.41,6.65-1.58,13.32-3.06,19.91-4.81,2.12-.58,4.01-1.94,6.01-2.94,6.81-3.34,13.61-6.68,20.43-9.99.74-.35,1.72-1.35,2.35-.42Z"/><path class="cls-1" d="m290.14,125.98c.43-3.63-.28-7.29.56-10.87-1.9-1.14-.74-3.23-1.19-4.79-2.14-7.33-5.74-13.7-10.58-19.46-.32-.07-.5-.24-.44-.59-4.37-4.06-8.93-7.85-13.91-11.21-2.94-1.98-6.17-3.3-9.1-5.19-.72-.46-1.93-.44-1.8-1.77h-.54c-2.49.52-4.53-1.14-6.86-1.5-3.89-.6-7.77-1.02-11.72-.92-1.01.01-2.02.19-2.96-.34-.17.16-.35.34-.52.51-.54.04-1.07.08-1.61.12-.74.52-1.55.46-2.4.35h-.01c-1.29.07-2.49,1.29-3.82.17-.09,1.76-1.72,1.21-2.57,1.49-11.69,3.9-21.63,10.35-28.99,20.29-4.06,5.48-6.86,11.66-8.9,18.27-2.92,9.52-4.21,19.23-4.13,29.05.05,6.21,1.68,12.4,3.07,18.52.28,1.23.7,2.45-.17,3.62,2.47.63,1.8,3.02,2.4,4.58,2.69,7.12,3.98,14.57,5.15,22.05.12.79.78,1.88-.51,2.45-.44.19-.54.6-.2.86,2.16,1.62,1.31,3.97,1.37,5.99.17,7.27-.71,14.44-2.12,21.54-.13.63-.38,1.23-.56,1.85-.25.79-.71,1.33-1.61,1.27-1.01-.05-1.06-.82-1.26-1.57-.62-2.31-1.3-4.58-2.56-6.88-.67,3.44-1.46,6.89-1.98,10.36-.51,3.42-.75,6.89-1.1,10.33-.19,1.85-1.22,3.32-2.28,4.73-.68.92-1.6,1.39-2.37-.01-1.03-3.02-.17-6.11-.47-9.15-.13-1.27.43-2.64-.47-3.82-2.55,9.76-6.35,18.91-12.26,27.17-3.04,4.26-7.39,6.81-11.69,9.45-.91.56-2.05.86-2.73,2.18-.58-1.15.6-1.58,1.3-2.14.15-.12.31-.23.48-.31,12.87-6.17,17.92-18.1,22.41-30.44.51-1.41.83-2.9,1.41-4.28.24-.6.28-1.51,1.09-1.65h.01c.12-.03.25-.03.42-.01.12.11.21.21.29.34.11.12.17.25.24.39.39.83.21,1.81.28,2.72.2,2.9-.39,5.82.38,8.66,1.35.97,1.64-.36,2.02-1.06,1.25-2.17,1.77-4.54,1.7-7.05-.12-5.05,1.51-9.84,2.25-14.76.12-.79.29-1.82,1.43-1.77.9.03,1.13.88,1.41,1.58.38.97.5,2.01.91,2.96.36.88.2,2.49,1.49,2.35,1.06-.11,1.07-1.62,1.29-2.6.58-2.76,1.06-5.56,1.26-8.38.31-4.12.95-8.22.72-12.39-.09-1.69.04-3.39-.88-4.93-.82-1.38.25-2.75.04-4.14-1.35-8.94-3.03-17.75-6.69-26.14-1.14-2.61-1.1-5.84-1.61-8.79-.66-3.79-1.42-7.59-1.93-11.41-.46-3.36-.43-6.76.07-10.13.56-3.81.92-7.67,1.57-11.43,2.98-17.48,10.56-32.21,26.08-42.06,5.39-3.42,11.15-5.8,17.1-7.9.07-.01.13-.04.2-.04.05-.03.12-.04.17-.04,1.23-.28,2.49-.35,3.74-.55.24-.01.5-.03.74-.04.25-.01.51-.04.75-.08.11-.01.21-.04.32-.05.09-.03.17-.04.25-.08.11-.01.2-.04.31-.08.54-.13,1.07-.24,1.62-.34.04-.01.07-.01.11-.01.11-.03.23-.05.34-.05.03-.01.04-.03.07-.01.11-.03.2-.04.31-.04.16-.01.32-.03.48-.03,6.98-.04,13.9.35,20.55,2.72.13.01.27.04.39.08.08,0,.15.03.21.05.08.01.16.04.23.07.04.03.07.04.11.07.03.01.04.03.07.04,3.2,1.97,6.77,3.39,9.84,5.44,4.38,2.95,8.79,5.99,12.56,9.8.74.76,1.49,1.5,2.25,2.25.09.08.17.16.27.25.03.03.04.04.07.07t.03.03c.07.05.13.12.2.19.21.2.43.43.63.64,5.33,5.94,8.66,12.92,10.84,20.52.4,1.45.12,3,.78,4.41v.29c.03,1.01.04,2,.01,2.99h0c-.08,6.49-.95,12.84-3.11,19.02-.05.11-.09.23-.13.34-.05.11-.09.2-.13.31-1.55,3.67-3.03,7.37-4.96,10.9-2.99,5.5-7.39,9.77-11.85,13.87-3.36,3.08-8.11,4.07-12.45,5.47-5.84,1.9-11.89,2.55-18,3.08-5.15.44-9.91.07-14.45-2.41-.16-.09-.27-.11-.27-.11-1.72-.38-4.14-1.27-4.89.36-.76,1.66,1.82,2.12,3.08,2.94,2.65,1.7,5.08,3.69,8.4,4.34,1.45.29,2.01,1.31,1.7,2.59-1.03-2.18-3.34-2.13-5.2-3-3.14-1.46-5.99-3.57-8.9-5.5-.58-.38-1.02-1.35-.7-2.01.28-.56,1.11-.92,1.89-.9,1.77.07,3.69-.36,5.27.62,6.11,3.77,12.71,2.39,19.22,1.93,7.16-.5,13.9-2.73,20.41-5.48,4.14-1.74,7.32-5.03,10.35-8.3,4.4-4.73,7.37-10.35,9.77-16.29.34-.83.34-1.84,1.21-2.41.63-4.12,2.1-8.04,2.61-12.21Z"/><path class="cls-1" d="m334.34,179.91c-1.65,13.82-5.21,27.09-10.95,39.82-4.22,9.33-9.42,18.02-15.55,26.18-.58.76-.86,1.96-2.18,1.88-.36-.19-.72-.36-1.09-.54-1.42,2.64-2,5.63-4.17,7.99-10.19,11.14-21.5,20.91-34.21,29.06-.54.35-1.17.55-1.76.8-.54.4-1.07.79-1.62,1.18-.72.68-1.57,1.17-2.91,1.38.59-1.13,1.38-1.55,2.24-1.9.56-.38,1.13-.74,1.69-1.11,12.13-9.25,22.99-19.74,32.02-32.1,8.82-12.06,15.45-25.27,19.78-39.52,4.87-16.02,6.5-32.52,5.83-49.25-.04-.83-.71-1.88.47-2.52-.03-.12-.03-.25,0-.38-.98-.12-.88-.7-.55-1.35-.15-.39-.31-.76-.46-1.15-.19-1.68-.46-3.35-.55-5.03-.11-1.66-.54-3.12,1.51-4.54,1.13-.78,1.76-3.35,2.49-5.16,1.64-3.98,3.95-7.49,7.27-10.76.99,5.72,2.29,11.07,2.73,16.57.82,10.16,1.15,20.32-.05,30.45Z"/><path class="cls-1" d="m232.04,14.21c-.11-.32-.21-.64-.39-.95-1.34-.78-3.16-.83-4.22-1.49-4.33-2.68-9.25-3.51-13.89-5.01-12.69-4.09-25.83-5.95-39.14-6.58-13.93-.67-27.65.64-41.28,3.47-11.5,2.39-22.48,6.15-33.24,10.8-12.63,5.47-24.22,12.65-35.02,21.07-15.54,12.12-28.4,26.67-39.09,43.26C11.96,100.17,3.62,123.4,1.04,148.73c-.24,2.32.2,4.8-1.03,6.98v5.66c.48,2.25.48,4.52,0,6.77v6.22c.07.12.12.23.17.35.32.76.07,1.58.11,2.37.23,4.4.35,8.78,1.03,13.14,2.05,13.06,5.64,25.7,10.52,37.97.2.38.58.59,1.01.78h.03c.86.44,1.82.76,1.51,2.04-.03.13-.08.28-.15.44-.67,1.19.03,2.17.46,3.19,1.78,4.25,3.93,8.31,6.14,12.36,10.55,19.37,24.33,36.06,41.39,50.04,3.63,2.98,7.29,5.91,11.29,8.42,1.41.88,2.73,1.29,3.08-.86.03-.09.04-.19.05-.29-.08-.27-.34-.58-.24-.79,2.05-4.2,1.09-8.69,1.35-13.07-.01-.11-.03-.21-.04-.34-.01-.09-.01-.19-.03-.29-.04-.36-.09-.71-.23-1.06-.03-.07-.05-.12-.08-.19-.05-.11-.11-.2-.17-.29-.36-.75-1.13-1.23-1.35-2.08,0-.01-.01-.03-.01-.04-.01-.01-.03-.03-.04-.04-.4-.47-.35-1.09-.54-1.64.24.52.24,1.14.55,1.62.01.04.04.07.08.09.01.04.04.08.08.12.29.91,1.29,1.34,1.58,2.24.01.01.03.04.03.05.03.04.05.08.08.12.21.35.28.74.43,1.1h0c.03.09.07.16.11.24.03.07.08.12.12.19.21.24.48.42.75.58.08.05.16.09.25.13.04.03.09.05.15.08t.03.01s.04.01.07.03c.55.2,1.09.56,1.72.24h.01s.03-.01.04-.03c.01,0,.01-.01.03-.01.32-.27.66-.51.91-.83.07-.07.13-.15.19-.23.01-.03.04-.07.07-.09.63-.99,1.98-1.72,1.25-3.26-.03-.03-.04-.04-.07-.05.74.2,1.74.23.88,1.47-.42.6-.74,1.27-1.19,1.86-.04.07-.08.13-.13.19t-.01.03c-.34.94-.23,1.8.46,2.56.15.11.28.21.43.31.05.05.12.09.19.13.39.27.8.46,1.34.38.03,0,.05,0,.08.01.16,0,.29.03.42.09t.03.01c.11.03.21.09.31.19.09.07.17.17.24.29.36,1.26,1.64,2.37.58,4.06-.78-1.09-1.7-1.81-3.27-.64.75-.92,1.69-1.05,2.04-1.85.03-.07.05-.15.07-.21.03-.09.05-.2.05-.29h0c.01-.21-.03-.4-.11-.6-.08-.07-.16-.12-.25-.19-.52-.35-1.14-.59-1.55-1.07-.07-.07-.12-.13-.16-.2-.01-.01-.03-.01-.03-.03-1.22-.23-1.21-2.24-2.76-1.98h-.03s-.01,0-.03.01h-.04c-.68.72-.48,1.54-.21,2.41-.42-.91-.9-1.66-2.04-1.41t-.01.03h-.01c-.05.05-.11.12-.15.19-.05.05-.09.13-.12.2-.04.08-.08.16-.11.24-.25,1.39-.27,2.75.54,4.01.11.19.79.29.23.7-2.41,1.74-2,4.25-1.84,6.7h.01c.04.15.11.28.2.4.08.16.2.31.32.44.05.05.09.09.15.15.09.08.19.16.28.25.44.36.91.72.84,1.29-.28,2.53,1.54,3.46,3.28,4.36,7.91,4.09,15.58,8.69,23.99,11.7,4.48,1.61,8.74,3.97,13.65,4.18.08-.03.16-.07.24-.12.16-.07.32-.16.46-.28.31-.23.56-.54.75-.91.03-.04.04-.08.07-.12,0-.01.01-.03.01-.04.34-.98.07-1.89-.35-2.77-.03-.04-.05-.08-.08-.12-.08-.09-.13-.2-.19-.31-.28-.58-.27-1.18-.11-1.81v-.03c.03-.09.05-.2.08-.31,0,.11-.01.21-.01.32v.05c-.2.58-.17,1.13.2,1.64h.01c.09.05.19.09.27.11.56.17,1.05-.05,1.51-.4h.01c.05-.03.08-.05.13-.09.07-.09.13-.17.19-.27h0s.04-.07.05-.09c.39-.66.55-1.38.62-2.13,0-.04.01-.08.01-.12,0-.05-.01-.11-.01-.16,0-.08.01-.16.03-.23.17-1.17,1.55-1.96,1.05-3.31-.01-.03-.01-.05-.01-.08-.03-.07-.04-.15-.04-.21-.13-1.07.92-1.61,1.3-2.45.04-.05.07-.11.09-.16h0s.03-.05.04-.07.01-.03.01-.04h.01c.27-.46.48-.94.64-1.45.05-.16.11-.32.13-.5.04-.09.05-.19.08-.28.13-.9-.27-2.05.01-2.88.16-.5.58-.87,1.46-1.01.12-.03.27-.04.42-.05,1.03-2.48-1.51-1.47-2.23-2.27-.54-.36-1.11-.23-1.57-.03-.08.04-.15.07-.21.11-1.11.54-1.15.08-1.11-.46,0-.23.03-.47-.01-.66-4.28-1.73-8.54-3.47-12.8-5.2-.07-.07-.15-.13-.21-.2h-.01c-.17-.16-.32-.31-.25-.42.12-.19.38-.13.62-.13.03,0,.07,0,.09-.01.07,0,.12-.01.17-.03.01,0,.03,0,.04-.01.29-.05.5-.15.63-.28.44-.42.2-1.14.25-1.73,0-.04-.01-.09-.03-.13,0-.05-.01-.11-.03-.16-.03-.13-.05-.27-.11-.4h0c-.07-.12-.12-.24-.16-.38-.17-.56-.09-1.22-.46-1.73-.03-.05-.08-.11-.15-.16-.01-.03-.04-.05-.07-.08-1.53-.46-2.28-1.65-2.94-2.94-.05-.11-.11-.2-.16-.31h-.01c-.07-.07-.12-.13-.19-.19-.67-.63-1.38-1.23-2.05-1.88,0,0-.01,0-.01-.01-.64-.63-1.25-1.3-1.72-2.09-.08-.09-.15-.2-.2-.31-.01-.03-.03-.07-.04-.09-.44-.94-1.06-1.64-2.2-1.62-1.02,0-1.38-.78-1.84-1.46-.01-.03-.04-.05-.05-.08-.04-.05-.07-.09-.11-.15-.11-.13-.2-.28-.28-.43h-.01c-.08-.12-.15-.27-.17-.42-.03-.04-.03-.09-.04-.13.51-1.73-.92-2.47-1.78-3.5-.01-.03-.04-.04-.05-.07-.08-.11-.16-.2-.21-.31-.28-.35-.51-.71-.75-1.09-.03-.03-.05-.07-.08-.07-.07-.08-.13-.13-.21-.17-.07-.04-.15-.08-.23-.09-.01,0-.03-.01-.03-.01-.63.24-.68-.19-.79-.54h0c-.04-.11-.08-.2-.13-.27,0,0,0-.01-.03-.03h0c-.04-.05-.08-.08-.12-.12h0c-.12-.12-.24-.21-.38-.28-.11-.08-.24-.15-.38-.19-.05-.03-.11-.04-.16-.05h-.01c-1.5-.51-2.8.39-4.16.76-1.55.44-2.87.8-3.59-1.23-.29-.8-1.15-1.41-2.02-1.29-1.26.17-.98,1.38-1.14,2.25-.01.07-.03.16-.03.24,0,.27.03.55-.24.62h-.03s-.03.01-.05.01c-.05,0-.09,0-.13-.03-.19-.07-.28-.32-.38-.56-.03-.08-.05-.15-.09-.21.03-2.09-.58-3.85-2.49-4.99-.84-.51-1.74-1.25-.8-2.21.97-.98,1.61.04,2.25.75,3.65,4.06,4.79,3.85,6.82-1.26.01-.03.03-.07.04-.11-.01-.03-.01-.04-.03-.07-.71-1.74-2.94-2.23-3.55-4.05-.03-.09-.05-.19-.08-.29-.25-.66-.7-1.18-1.15-1.69-.35-.38-.7-.75-.98-1.17-.23-.31-.4-.66-.52-1.03-2.2-1.61-4.4-3.22-6.49-4.93-14.11-11.57-19.21-26.58-16.77-44.41.94-6.86,3.61-13.2,6.06-19.6.04-.2.05-.39.03-.55-.01-.16-.07-.31-.13-.44-.12-.29-.34-.55-.56-.8-.05-.07-.12-.13-.17-.19s-.09-.09-.13-.15c-.28-.51-.43-1.07-.68-1.6-.01-.07-.05-.12-.08-.19-.01-.03-.04-.07-.05-.09-.39-.72-.34-1.57-.64-2.35-.03-.04-.04-.08-.07-.12-.03-.05-.05-.11-.08-.15h-.01c-.07-.12-.16-.24-.27-.35.21.04.29.17.36.34.01.05.03.11.04.16.03.07.05.13.09.19.27.7.21,1.5.6,2.17.01.01.01.03.03.04.05.11.11.21.15.32.27.62.38,1.3.88,1.77.04.04.09.08.15.11h.01c.05.05.11.09.17.13.2.09.39.13.59.13.12,0,.24-.03.36-.07.08-.03.17-.05.25-.09,2.73-3.81,5.19-7.81,7.71-11.77.27-.43.42-.97.13-1.47-.01-.04-.04-.08-.07-.12-.03-.01-.05-.03-.08-.05-.42-.23-.84-.36-1.29-.43.46.04.92.04,1.39.01.24-.01.48-.03.72-.05.16-.01.32-.04.48-.07.78-.83.76-2.44,1.45-3.14.2-.19.43-.31.75-.34,1.93-.16,2.73-1.46,3.93-2.41,5.48-4.34,11.33-7.73,18.67-7.37,1.1.05,2.27.17,3.28-.48.07-.11.11-.23.15-.34.03-.08.04-.16.04-.24.04-.28-.03-.54-.16-.78-.15-.31-.36-.59-.55-.9-.07-.11-.13-.21-.19-.34-.74-.9-1.47-1.8-2.52-2.28-.05-.04-.09-.07-.15-.08-.15-.08-.31-.13-.48-.19-2.04-.6-3.59-1.84-5.05-3.4-1.41-1.51-2.06-3.81-3.9-4.69-3.31-1.58-6.82-2.21-10.59-1.23-6.41,1.68-12.59,3.87-18.38,7.05-7.31,4.01-13.78,9.09-19.25,15.44-.86.99-.76,2.63-1.72,3.14-1.66.86-2.44,2.29-3.4,3.65-4.32,6.02-7.2,12.73-9.49,19.74.19-.6.15-1.21.04-1.81-.74-4.17-1.17-8.39-1.94-12.52-.4-2.08,1.05-4.81-1.23-6.41-.19-.13-.4-.25-.64-.38.05.01.23.04.29-.04.12-.16.21-.32.31-.48.95-1.73.5-3.59.19-5.44-.13-.08-.27-.15-.4-.23-.07-.04-.12-.08-.17-.13-.16-.13-.23-.32-.08-.63.03-.07.08-.15.13-.23.04-.05.08-.12.11-.19.29-.48.43-1.07.56-1.64.05-4.69.74-9.33,1.23-13.99,2.14-20.54,8.55-39.66,18.83-57.49,11.82-20.52,27.87-37.05,47.91-49.68,12.75-8.03,26.42-13.86,41.04-17.64,11.54-2.99,23.35-3.81,35.11-5.12,1.35-.15,2.43-.16,2.72-1.73.16-.88.71-1.1,1.41-.62.76.55,1.84.52,2.44,1.33.01.01.01.03.03.04.03.05.05.11.08.15.21.35.47.6.75.79.16.12.34.2.52.28h.01c1.19.44,2.67.11,3.83.59.99.19,1.98.29,2.95-.12.13-.08.24-.17.34-.28.09-.09.16-.19.24-.29.07-.11.13-.2.2-.31-.05.12-.12.23-.19.35-.05.08-.09.16-.12.25-.05.15-.07.31.05.5.66.67,1.54.64,2.37.68,1.93.09,3.81.47,5.83.28,1.6-.13,3.44,1.05,5.23,1.46,8.93,2.06,17.85,4.06,26.49,7.18.97.35,1.96.68,3.02.36.09-.07.19-.13.27-.2,1.33-1.1,1.1-2.86,1.64-4.28.12-.24.04-.48-.12-.72-.05-.08-.11-.16-.16-.24-.35-.5-.72-.99.27-1.49.03-.03.07-.05.09-.09.09-.11.19-.21.25-.34.35-.51.51-1.11.76-1.66.11-.23.23-.44.39-.63.03-.04.05-.08.09-.12.12-.2.24-.43.31-.66,0-.01,0-.03.01-.04,0,0,.01,0,0-.01.17-.74.23-1.51.48-2.24h0c.01-.05.03-.08.05-.12.01-.05.03-.09.05-.15.08-.27.19-.52.29-.76.11-.23.23-.44.32-.66.17-.32.32-.64.4-.99.08-.29.12-.6.09-.92-.01-.07-.04-.12-.05-.19ZM83.32,286.58c-.47-.13-1.03-.01-1.45-.42.64-.21,1.05.12,1.45.42Zm-15.64-113.68c1.07-.05,2.24.11,3.47.2-1.27,0-2.52.28-3.47-.2Zm7.48,111.44c-.25-.29-.48-.59-.52-.99,0-.04.12-.05.12-.05.01.28.13.51.25.75.07.07.12.13.16.21.04.07.08.13.09.2-.04-.04-.08-.08-.11-.12Zm45.99,35.87c-.04-.87.16-1.73.04-2.6,0-.04,0-.08-.01-.12,0-.05,0-.11-.01-.17-.01-.15-.03-.29-.04-.46-.07-.13-.15-.27-.24-.39-.05-.07-.11-.15-.17-.21,0,0-.01-.01-.01-.03-.07-.08-.12-.16-.17-.24-.24-.36-.39-.74-.12-1.26.46-.94.54-1.96.46-2.99,0-.07-.01-.13-.03-.2-.01-.05-.01-.11-.04-.16-.08-.43-.21-.86.15-1.27-.2.42-.16.83-.09,1.26h0c0,.07.01.12.01.17.03.16.04.32.04.48,0,.54,0,1.07-.03,1.62-.17.8-.16,1.6.01,2.36.01.01,0,.01,0,.03.01.07.03.11.05.17.05.27.15.52.24.78.01.11.04.21.04.34.01.04.01.09.01.15.08.91-.03,1.84-.08,2.75Z"/><path class="cls-1" d="m158.73,334.23c-2.08-1.19-4.44-.78-6.66-1.01-10.19-.99-20.16-3.11-30.03-5.79-.56,0-1.17.08-1.55-.36-.08.05-.16.09-.24.12-4.91-.21-9.17-2.57-13.65-4.18-8.42-3.02-16.08-7.61-23.99-11.7-1.74-.9-3.57-1.82-3.28-4.36.07-.56-.4-.92-.84-1.29-.07.62.47,1.55-.59,1.53-1.14-.01-.16-1.25-.63-1.77-.21-.28-.44-.55-.67-.83-.35,2.14-1.68,1.74-3.08.86-3.99-2.51-7.65-5.44-11.29-8.42-17.06-13.98-30.84-30.67-41.39-50.04-2.21-4.05-4.36-8.11-6.14-12.36-.43-1.02-1.13-2-.46-3.19.07-.16.12-.31.15-.44-.51-.67-1.02-1.35-1.51-2.02h-.03c-.43-.2-.8-.42-1.01-.79-4.88-12.28-8.47-24.92-10.52-37.97-.68-4.36-.8-8.74-1.03-13.14-.04-.79.21-1.61-.11-2.37,1.02,2.18.6,4.61.86,6.9,1.05,9.1,2.52,18.06,5.12,26.88,1.3,4.42,2.37,8.91,3.98,13.23.32.87.05,2.45,1.86,2.1.44-.09.43.39.28.52-1.54,1.46.28,2.75.19,4.12,1.11.7,2.47,1.21,2.21,2.94-.44.98.05,1.73.44,2.61,8.83,20.13,21.34,37.72,37,53.09,6.9,6.77,14.41,12.83,22.4,18.3,1.76,1.21,1.54-.21,1.85-1.09.11-.03.2-.03.28-.01.34.01.54.25.71.5.09.12.17.24.27.35.17.16.31.17.43.12.2-.07.36-.32.58-.36.94.8,2.75,1.19,1.17,3.07-.56.68.34,1.15.88,1.43,3.74,1.97,7.24,4.34,11.3,5.79,1.69.6,3.26,2.06,5.04,2.92,7.14,3.46,14.57,6.19,22.14,8.51.36.11.74.09,1.11.15.23.01.44.01.67.01.25,0,.5,0,.75.01.12,0,.24.01.36.03.15.01.31.04.46.08,11.23,2.8,22.56,5.08,34.13,6.02.84.07,2-.09,2.09,1.3Z"/><path class="cls-1" d="m276.07,298.67c-20.41,16.53-43.74,26.79-69.37,31.94-7.91,1.58-15.9,2.83-23.99,3.06-.51.01-1.17-.24-1.38.56h-1.69c-.38-.36-.75-.36-1.13,0h-2.83c-1.51-.48-3.02-.48-4.52,0h-3.39c-.15-.15-.2-.29-.17-.46.01-.09.04-.16.07-.2,0-.04.03-.05.04-.05.03-.01.05-.03.08-.04,1.89-.87,3.42-2.47,5.59-2.81.58-.09,1.17-.39.82-1.11-.29-.62-.94-.5-1.47-.31-2.12.72-3.51,2.37-4.97,3.94-.08.08-.16.17-.24.25-.04.05-.09.09-.13.15-1.07.84-2.47-.12-3.55.64h-5.09c-2.08-1.19-4.44-.78-6.66-1.01-10.19-.99-20.16-3.11-30.03-5.79-.21-.19-.34-.39-.35-.63-.03-.13-.03-.28,0-.43.07-.15.12-.31.17-.47.01-.05.04-.09.05-.15h0c.05-.2.09-.39.13-.58h0c.08-.38.15-.72.25-1.07.03-.12.05-.24.09-.36.08-.63.38-1.17.71-1.66h.01c.09-.13.17-.24.27-.36,0-.01.01-.03.03-.04t.01-.03c.19-.74.47-1.43.68-2.16.03-.08.05-.17.07-.27.03-.08.05-.16.07-.24.03-.09.05-.19.07-.28.2-.63.56-1.34,1.11-1.51,1.49-.46.23-1.03.16-1.55v-.04c-.03-.07-.03-.15-.03-.21-.05-.58.16-1.06.6-1.47.12-.08.25-.15.39-.21.05-.01.12-.04.19-.07.46-.15.95-.23,1.35-.54.03-.01.05-.03.08-.04.27-.16.55-.29.82-.44.12-.07.23-.13.35-.21.21-.15.42-.31.63-.47.08-.07.16-.13.25-.2.05-.05.11-.09.16-.13.43-1.05.16-2.1.03-3.15-.04-.28-.05-.56-.05-.84,0-.12.01-.24.03-.36.01-.24.07-.47.15-.7.63-1.27,1.65-.64,2.44-.38,5.48,1.86,11.1,3.16,16.7,4.56.39,1.33-1.39,1.35-1.37,2.43.46.34.99.27,1.25-.12,1.73-2.67,4.2-1.53,6.37-1.14,23.04,4.18,45.87,3.35,68.55-2.47.59-.15,1.22-.19,2.13-.32-1.33,1.69-2.56,3.1-3.59,4.62-.98,1.45-1.33,2.84,1.18,3.03.2.29.27.54.24.78-.03.79-1.05,1.33-1.02,2.1.35-.74.71-1.54,1.43-2.08.01-.01.04-.04.07-.05.78-1.58,2.27-2.05,3.81-2.41,6.65-1.58,13.32-3.06,19.91-4.81,2.12-.58,4.01-1.94,6.01-2.94,6.81-3.34,13.61-6.68,20.43-9.99.74-.35,1.72-1.35,2.35-.42.56.87-.75,1.26-1.34,1.73Z"/><path class="cls-1" d="m0,161.36c.91,2.26.9,4.52,0,6.78v-6.78Z"/><path class="cls-1" d="m163.83,334.23c.84-1.25,2.5.14,3.35-1.06.59-.31.67,0,.6.5,0,.19,0,.38,0,.56h-3.95Z"/><path class="cls-1" d="m171.17,334.23c1.51-.78,3.01-.9,4.52,0h-4.52Z"/><path class="cls-1" d="m178.51,334.23c.38-.73.75-.82,1.13,0h-1.13Z"/><path class="cls-1" d="m223.24,70.5c-.09,1.76-1.72,1.21-2.57,1.49-11.69,3.9-21.63,10.35-28.99,20.29-4.06,5.48-6.86,11.66-8.9,18.27-2.92,9.52-4.21,19.23-4.13,29.05.05,6.21,1.68,12.4,3.07,18.52.28,1.23.7,2.45-.17,3.62,2.47.63,1.8,3.02,2.4,4.58,2.69,7.12,3.98,14.57,5.15,22.05.12.79.78,1.88-.51,2.45-.44.19-.54.6-.2.86,2.16,1.62,1.31,3.97,1.37,5.99.17,7.27-.71,14.44-2.12,21.54-.13.63-.38,1.23-.56,1.85-.25.79-.71,1.33-1.61,1.27-1.01-.05-1.06-.82-1.26-1.57-.62-2.31-1.3-4.58-2.56-6.88-.67,3.44-1.46,6.89-1.98,10.36-.51,3.42-.75,6.89-1.1,10.33-.19,1.85-1.22,3.32-2.28,4.73-.68.92-1.6,1.39-2.37-.01-.39-3.59-.08-7.2-.17-10.8-.01-.63,0-1.25-.04-1.86-.04-.48-.09-.97-.24-1.43-.04-.51-.25-.83-.54-1.03-.09-.09-.21-.15-.32-.21-.21-.11-.43-.19-.59-.25.12.08.29.23.51.4.05.04.11.09.17.15s.13.11.2.16c.46.62.62,1.25.09,1.9h-.01c-2.55,9.77-6.35,18.93-12.26,27.18-3.04,4.26-7.39,6.81-11.69,9.45-.91.56-2.05.86-2.73,2.18h0s-.01.03-.01.04h.04c2.8.32,5.13-.84,7.53-1.55,1.17-.34,2.29-.8,3.42-1.23,1.73-.64,3.7-1.33,4.64.82.91,2.06-1.26,2.64-2.55,3.35-7.49,4.18-15.29,7.83-22.13,13.18-2.05,1.6-4.68,2.73-7.52,2.73-1.19.01-2.14.58-1.92,1.77.21,1.1,1.29.75,2.13.55,1.27-.29,2.56-.58,3.86-.78.84-.15,1.64-.2,1.96.98.31,1.15-.16,1.78-1.05,2.28-.24.13-.55.16-.79.29-.97.54-3.03.03-2.73,1.65.2,1.1,2.12.68,3.27.76,3.46.27,6.94.46,10.41.55,1.09.03,1.96.25,2.09,1.3.13,1.13-1.03,1.19-1.78,1.43-8.2,2.77-16.77,3.61-25.31,4.69-2.21.27-3.58-.8-5.08-1.96-.09-.03-.19-.05-.27-.09-.36-.16-.58-.48-.8-.8-.07-.11-.13-.2-.2-.29-.05-.08-.11-.16-.16-.23-.12-.19-.25-.38-.39-.56-.07-.09-.13-.19-.2-.28-.01-.03-.04-.05-.05-.08-.23-.47-.32-1.01-.67-1.38t0-.01c-.05-.05-.11-.11-.17-.15-.08-.08-.17-.13-.28-.17-1.17-.67-1.88-1.78-2.73-2.73-.07-.08-.13-.16-.21-.23-.05-.05-.09-.11-.16-.16-.07-.08-.15-.16-.23-.23-.74-.47-1.31-1.09-1.81-1.76,0,0-.01,0-.01-.01-.54-.7-1.01-1.45-1.55-2.14-.08-.12-.16-.23-.25-.34-.01-.01-.03-.04-.04-.05-.27-.4-.48-.8-.31-1.29.01-.07.04-.13.07-.2.01-.03.03-.05.04-.08.03-.05.05-.11.09-.15-.15-.05-.21,0-.27.07-.03.04-.04.09-.08.15-.03.08-.07.15-.15.17-1.3-.25-1.88-1.49-2.9-2.12h-.01c-.07-.07-.13-.15-.2-.23-.08-.08-.15-.19-.21-.28-.03-.03-.04-.07-.07-.09-.04-.09-.07-.19-.11-.28-.52-1.33-1.34-2.48-2.39-3.46-.04-.03-.07-.07-.11-.09-.09-.08-.17-.16-.27-.24-.4-.36-.76-.74-1.06-1.21-.01-.01-.03-.03-.04-.05h-.01v-.03c-.05-.04-.11-.08-.16-.13-.01,0-.03-.01-.03-.01-.32-.29-.63-.58-.95-.84-.04-.04-.08-.07-.12-.11h0c-.21-.84-.86-1.43-1.22-2.2t-.03-.03c-.04-.07-.08-.12-.13-.16-.12-.15-.27-.25-.44-.35.04.21.25.24.38.38.03.01.05.04.07.07.01.03.03.05.03.08.29.67,1.09,1.13.98,1.93-.01.09-.03.17-.07.28-1.98-.21-3.75.47-5.51,1.26-1.37.59-2.79,1.14-2.95-1.25-.07-1.14-1.03-1.42-1.85-1.88-.7.75-.25,1.61-.38,2.39-.32.23-.66.31-.98.31h-.03c-.07,0-.12,0-.19-.01-.36-.03-.72-.15-1.07-.25-.23-2.36-.48-4.56-3.32-5.55-1.05-.36-.99-2.06-.12-2.92.95-.94,2.21-.9,3.16.21.28.34.23.98.52,1.26.84.79,1.69,1.68,2.71,2.14,2.18.98,1.19-1.46,2-2.06.51-.38.84-.97,1.26-1.47.07-.01.13-.03.19-.01.99-.15,1.37.58,1.76,1.27.04.08.08.15.12.21,0,.04.01.07,0,.11.03.24.01.48-.03.71-.05.34-.43.38-.54.64.29.04.63.01.75-.21.25-.47.23-.86.07-1.23-.07-.16-.16-.32-.28-.47-.11-.16-.24-.32-.38-.48-1.09-1.37-3.04-2.41-1.76-4.6,0-.01.01-.04.04-.07,0-.03.03-.05.04-.08,2.09-.82,3.86.43,5.66,1.03,10.24,3.47,20.68,4.12,31.16,1.76,19.26-4.34,31.19-16.35,36.2-35.43,3.42-12.98,2.08-25.91.07-38.89-1.43-9.3-3.66-18.44-5.59-27.65-2.59-12.35-4.76-24.8-4.34-37.46.83-24.77,9.7-46.34,26.69-64.46,2.48-2.65,5.46-4.62,9.1-5.36.92-.19,2.06-.46,2.59.47.6,1.09-.55,1.66-1.25,2.2-3.31,2.55-6.23,5.44-8.36,9.06-.64,1.09-1.5,2.14-1.42,3.75,1.47-.39,1.96-1.6,2.68-2.48,1.07-1.31,2.14-2.64,3.66-3.47.84-.46,1.82-.83,2.6.01.79.87.29,1.8-.29,2.56-1.96,2.53-3.85,5.11-5.68,7.77,1.49-.88,2.88-1.86,4.05-3.18.88-1.02,1.98-2.2,3.27-.86,1.23,1.26-.25,2.18-.98,3.06-1.54,1.89-2.92,3.99-4.77,5.55-1.68,1.43-.7,2.52.03,3.55.87,1.25,2.21,1.01,3.26.19,1.93-1.5,3.79-3.08,5.59-4.75,2.91-2.67,5.82-5.36,9.01-7.69,3.98-2.91,8.34-5.09,13.3-5.8.35.04.68.09,1.02.15.27.04.54.09.8.15,2.81.55,5.33,1.64,6.92,4.41.04.05.08.11.11.17v.03c.01.05.03.11.03.16.01.07.03.15.04.21Z"/><path class="cls-1" d="m330.9,129.16c-1.68-5.63-3.35-11.26-5.04-16.89-.28-.94-.62-1.11-1.76-.75-1.64.54-2.98,2.01-4.89,1.62-.09.01-.2.03-.29.04-.62.09-1.19.29-1.76.54.55-.25,1.1-.52,1.66-.75.12-.07.24-.11.36-.16.39-2.05,2.36-1.74,3.65-2.27,1.61-.66,2.04-1.35,1.34-2.95-2.56-5.91-5-11.86-8.08-17.55-.66-1.22-1.22-1.86-2.79-1.42-1.11.31-2.68-.17-1.8-1.74,1.35-2.44.35-4.26-.86-6.19-7.1-11.41-15.47-21.81-24.99-31.26-5.94-5.9-12.32-11.3-19.01-16.33-.54-.4-1.26-.51-1.64-1.14-4.45-3.08-8.91-6.14-13.61-8.87-4.75-2.76-9.45-5.6-14.62-7.49-1.39-1.46-3.57-1.26-5.13-2.35-.01.25-.03.5-.04.75,0,.13-.01.28-.01.42.05.08.09.17.11.27.01.01.03.04.03.07.2.56.08,1.07-.13,1.55-.09.21-.21.43-.32.66-.17.28-.34.58-.44.87-.01.01-.03.04-.04.05-.03.04-.05.08-.07.12-.51.79-.34,1.82-.8,2.65,0,.01-.01.04-.03.05h-.01v.03c-.25.23-.35.55-.31.91,0,.01,0,.03.01.04.05.27.19.54.28.8h0c.09.28.13.54.03.79t0,.01c-.04.09-.09.19-.19.27-.01.01-.03.03-.04.04-.04.05-.08.08-.12.11-.01.03-.04.04-.05.05-.04.07-.09.13-.15.2-.03.01-.04.04-.07.07-.39.39-.97.66-1.07,1.23-.03.13-.03.28,0,.46-.56,1.53-1.13,3.06-1.7,4.58.01.15.04.28.08.4.36,1.35,1.78,1.37,2.81,1.76,9.88,3.67,19.25,8.34,27.95,14.64-1.15.17-1.97-.38-2.84-.64-4.85-1.46-9.65-3.12-14.64-4.06-3.08-.59-6.31-1.15-9.06,1.23-.01.05-.01.09-.03.15,0,.03-.01.05-.01.08-.19.98-.47,1.97-.11,2.94.03.12.08.24.16.36.03.08.08.15.13.23,5.03.58,9.89,1.93,14.82,2.99.8.17,2.45-.47,1.88,1.45-.32,1.05,1.45,1.85.38,2.81-1.82,1.62-.95,3.11-.09,4.75.48.91,1.29,1.76,1.33,2.95-1.22.04-2.06-.42-2.95-.68-4.2-1.22-8.43-1.9-12.79-.99-1.03.21-2.12.23-2.4,1.54v.29c0,.09.01.19.01.29.04.8.12,1.62.09,2.43,0,.04.01.07.03.11,0,.05.01.09.01.15.08.44.16.87.17,1.31.01.07.01.13.01.2v.09c.01.16,0,.34-.01.5h0c-.04.4-.12.82-.04,1.22h0c0,.07.01.13.03.19.04.12.09.24.16.36.94.52,1.96.35,2.96.34,3.94-.09,7.83.32,11.72.92,2.33.36,4.37,2.02,6.86,1.5.09-.11.17-.21.24-.34.31-.42.55-.86.75-1.33-.19.47-.34.95-.42,1.46l-.04.2c-.13,1.33,1.07,1.31,1.8,1.77,2.94,1.89,6.17,3.2,9.1,5.19,4.99,3.35,9.54,7.14,13.91,11.21.09-.19.16-.38.21-.58.04-.09.08-.2.11-.31.21-.79.29-1.62.51-2.41v-.2c.03-.76.05-1.53-.03-2.45.13.84.03,1.53.07,2.2,0,.08,0,.17-.01.25h0c-.01.29-.05.58-.08.84.08.13.12.24.12.36.07.38-.11.67-.31.97-.09.15-.19.29-.27.44,0,.13-.01.27-.01.4,0,.36.01.72.13,1.07,4.84,5.76,8.43,12.13,10.58,19.46.46,1.55-.71,3.65,1.19,4.79.13,1.26.32,2.49.56,3.73h0c.98,5.07,2.76,9.88,4.85,14.61.17.31.39.52.6.66.09.07.17.11.27.13h.01c.92.35,2.04-.27,2.96.03.01,0,.04,0,.05.01.07,0,.13,0,.2-.01.09.01.17,0,.27,0h.01c.34-.03.67-.07.99-.03h.01c.43.04.79.17,1.05.6h.01c.11.16.19.35.24.58.04.07.08.13.12.21.56.99.76,2.12,1.19,3.15,0,.01.01.01.01.03.17.28.34.56.46.86.03.09.05.17.09.25.09.28.15.59.11.91,0,.03-.01.07-.01.09-.01.23.01.46.09.66.01.03.01.04.03.07.05.08.11.13.16.2h.01c.04.09.11.16.19.23.03.04.07.07.11.11.04.03.08.07.12.11.51.42.86.95,1.11,1.57.04.09.08.19.12.29,0,.01.01.03.01.04.34.91.36,1.98,1.11,2.65.16.16.36.28.6.39,1.1-.84,1.29-2.16,1.69-3.34,1.89-5.63,3.08-11.41,3.54-17.36.8.28.84.83,1.02,1.38,1.84,5.59,3.16,11.3,4.48,17.02.12.51-.12,1.22.67,1.33.59.07,1.1-.24,1.41-.76.63-1.02,1.96-2.36,1.68-3.04-.6-1.51.47-1.29,1.03-1.88,2.98-3.2,5.01-7.05,7.04-10.88.07-.13-.04-.38-.09-.55Zm-14.53-15.05c-1.17.59-2.28,1.25-3.5,1.39,1.19-.31,2.35-.83,3.5-1.39Zm-60.8-46.55c-.38.74-.79,1.46-1.14,2.2.32-.76.64-1.53,1.14-2.2Zm-19.09-51.58s0,.01-.01.03c-.12.16-.21.31-.35.44.12-.13.21-.29.32-.44.01-.01.03-.03.04-.03Z"/><path class="cls-1" d="m299.42,163.68c-2.83,4.84-7.01,8.47-11.25,11.98-12.8,10.58-27.93,13.86-44.1,13.75-.03-.2-.03-.39-.01-.56.04-1.54,1.09-2.67,1.82-3.91.12-.17.27-.34.42-.48.11-.11.21-.2.32-.31.05-.05.11-.11.16-.16h.01c.21-.2.42-.42.59-.64-.13-1.18.09-2.55-1.53-2.94-1.94-.46-3.99-.95-5.68.47-3.04,2.56-5.74,2.86-9.09.68.75-.97,1.98-1.01,2.91-1.45.12-.05.24-.12.35-.2-.05-.13-.09-.25-.15-.38-1.03-2.18-3.34-2.13-5.2-3-3.14-1.46-5.99-3.57-8.9-5.5-.58-.38-1.02-1.35-.7-2.01.28-.56,1.11-.92,1.89-.9,1.77.07,3.69-.36,5.27.62,6.11,3.77,12.71,2.39,19.22,1.93,7.16-.5,13.9-2.73,20.41-5.48,4.14-1.74,7.32-5.03,10.35-8.3,4.4-4.73,7.37-10.35,9.77-16.29.34-.83.34-1.84,1.21-2.41.21-.05.38-.05.5,0,.34.11.4.51.5.88-.01.13-.04.27-.05.4-.03.17-.04.34,0,.47v.03c.01.07.04.12.08.17,0,0,.01.01.01.03.05.07.15.13.27.17.07.04.13.07.23.08,1.53,3.97,4.28,7.32,5.6,11.43,1.14,3.54,3.16,6.74,4.46,10.23.09.23.23.46.31.68.11.28.16.56,0,.9Z"/><path class="cls-1" d="m334.34,179.91c-1.65,13.82-5.21,27.09-10.95,39.82-4.22,9.33-9.42,18.02-15.55,26.18-.58.76-.86,1.96-2.18,1.88-1.01-1.23.39-2.23.32-3.24-.36.88-.48,2-1.41,2.71-1.42,2.64-2,5.63-4.17,7.99-10.19,11.14-21.5,20.91-34.21,29.06-.54.35-1.17.55-1.76.8-.58.35-.63,0-.6-.46,12.13-9.25,22.99-19.74,32.02-32.1,8.82-12.06,15.45-25.27,19.78-39.52,4.87-16.02,6.5-32.52,5.83-49.25-.04-.83-.71-1.88.47-2.52.07-.2.52.05.43-.36-.13.13-.28.13-.43-.01-.98-.12-.88-.7-.55-1.35.35-.75.56-1.58,1.23-2.13-.63.19-.66,1.42-1.69.98-.19-1.68-.46-3.35-.55-5.03-.11-1.66-.54-3.12,1.51-4.54,1.13-.78,1.76-3.35,2.49-5.16,1.64-3.98,3.95-7.49,7.27-10.76.99,5.72,2.29,11.07,2.73,16.57.82,10.16,1.15,20.32-.05,30.45Z"/><path class="cls-1" d="m304.42,154.64c0,3.93-2.88,6.26-5,9.03-.09-.16-.2-.32-.28-.48-2.08-3.49-3.49-7.28-5.04-10.99-.67-1.64-1.29-3.2-2.24-4.73-1.34-2.13-2.16-4.6-3.19-6.92-.03-.13-.07-.25-.12-.38,0-.01-.01-.03-.01-.03-.03-.07-.05-.12-.08-.17v-.03c-.12-.23-.24-.44-.36-.66-.01-.29-.05-.58-.21-.79-.08-.12-.2-.23-.36-.31.63-4.12,2.1-8.04,2.61-12.21.43-3.63-.28-7.29.56-10.87.21.23.4.48.55.74.87,1.41.88,3.16,1.11,4.65.71,4.68,3.43,8.63,4.24,13.22.15.16.28.35.39.52h.01c.78,1.33.55,3.03,1.42,4.3.03.05.04.12.04.16,0,.05,0,.11-.01.15-.05.35-.35.72.05,1.02h.01s.05.05.09.07c.23.43.5.82.76,1.21.13.19.27.39.4.58.39.79.63,1.64.84,2.49.04.2.08.4.13.6.15.62.35,1.23.62,1.82.04.12.09.25.16.38.62,1.03,1.53,1.94,1.53,3.27-.03.12-.03.23-.03.34.01.17.04.34.11.5.09.28.24.55.39.8.03.04.05.07.07.11.04.07.08.15.12.21.07.09.12.19.16.28.01.03.03.07.05.11.04.11.08.21.12.32.13.39.19.79.27,1.19.03.17.07.34.11.5Z"/><path class="cls-1" d="m246.63,184.14c.03.29-.09.59-.31.9-.66,1.26-1.29,2.52-1.94,3.79-.09.19-.2.39-.29.58-3.97.48-7.69-.27-11.25-2.47,4.83-.11,9.07-2.04,13.46-3.53.19.2.29.42.32.63.01.03.03.07.01.09Z"/><path class="cls-1" d="m307.17,151.18c-.56,1.14-1.14,2.29-1.73,3.43,0,.01-.17-.01-.21-.05-.12-.12-.21-.28-.31-.42-.12-.09-.23-.19-.31-.29-.24-.27-.42-.58-.56-.9-.04-.11-.08-.21-.12-.32-.03-.04-.04-.08-.05-.11-.07-.17-.13-.34-.2-.5-.01-.01-.01-.03-.03-.04-.01-.04-.04-.07-.05-.11-.15-.25-.31-.51-.46-.76-.12-.19-.24-.36-.36-.55-.55-1.11-1.11-2.23-1.68-3.35-.08-1.01-.19-2-1.07-2.68-.21-1.01-.43-2.02-.66-3.03-.54-.42-.55-1.23-1.14-1.62-.6-.38-.03-.7.04-1.03.07-.05.13-.11.19-.15.98-.78,1.88-.67,2.76.12.07.07.15.13.23.21.07.09.12.2.17.31.07.12.12.24.19.36.21.44.4.9.66,1.31.04.07.08.13.12.2.48.76.97,1.53,1.1,2.45.04.27.08.55.12.82.15,1.06.31,2.13.66,3.14.03.07.05.15.07.21h0c.23.74.4,1.49,1.15,1.9.03.01.05.03.08.04.29.15.58.31.82.51.27.23.48.51.59.88Z"/><path class="cls-1" d="m307.17,151.18c-.21-.15-.44-.31-.67-.46-.29-.2-.59-.4-.88-.6-.31-.79-1.05-1.31-1.31-2.13,0-.01-.01-.03-.01-.04-.01-.05-.01-.11-.03-.16-.21-1.35-.59-2.65-.9-3.98-.38-.68-.76-1.35-1.14-2.02-.03-.71-.35-1.34-.59-1.97-.05-.11-.09-.2-.13-.31-.04-.13-.08-.27-.12-.42-.05-.09-.09-.17-.16-.27-.72-1.21-1.82-2.27-1.54-3.89.11-.12.2-.23.29-.31.08-.08.16-.15.23-.2.09-.07.19-.12.28-.16h.01c.35-.16.67-.15.99-.03,0,0,.01-.01.01,0,.36.12.7.36,1.05.6h.01c.25.19.52.38.79.51.84.9.92,2.06,1.15,3.19-.12.4-.05.78.08,1.13.03.09.05.17.09.25.16.39.35.76.39,1.17v.39c-.01.13-.03.25-.01.38h.01c.01.31.08.58.19.84.11.21.21.43.35.64.03.04.05.09.08.15.13.28.29.54.47.78.08.09.15.2.23.29.12.16.24.31.35.47.42.76.68,1.57.7,2.4.03.34,0,.66-.08,1.01-.13.91.32,1.86-.17,2.75Z"/><path class="cls-1" d="m227.71,68.71c-.36-.28.15-.68.08-1.06,0-.07.01-.12.01-.19h0c0-.16.01-.32.01-.48v-.11c.01-.09.01-.19.01-.28h0c.03-.68.03-1.38,0-2.06v-.42h0c0-.17-.01-.35-.01-.51-.09-.72-.23-1.42-.87-1.85-.07-.03-.13-.07-.2-.11h-.01c-.8-.24-1.45-.03-1.97.64-.04.08-.07.17-.07.25-.01.04-.01.08-.01.12-.01.4.2.79.35,1.19-.08-.19-.28-.31-.67-.32h-.25c-1.81,1.9-.8,4.25-1.05,6.39,0,.13-.01.25-.04.39h0c.05.11.11.16.21.19,1.33,1.11,2.53-.11,3.82-.17h.01c.42-.25,1.31-.29,1.35-.71.01-.19-.16-.48-.71-.91Zm-2.64-4.68c.08.34.08.68-.16,1.06.11-.4.21-.78.16-1.06Z"/><path class="cls-1" d="m231.51,67.86c-.01.31-.04.63-.09.94h0c-.01.08-.03.13-.04.2-.05.29-.15.58-.29.86-.54.04-1.07.08-1.61.12-.31-.09-.55-.24-.72-.42-.58-.54-.66-1.38-.94-2.1h0c-.04-.11-.08-.2-.12-.29v-.13s-.01-.09,0-.13c-.03-.82-.04-1.65.04-2.47,0-.01,0-.03.01-.04,0-.04.01-.07.03-.09.01-.05.03-.09.05-.13-.01-.01,0-.04.01-.05h0c.12-.32.34-.56.64-.75.07-.03.13-.05.21-.07.07-.03.13-.04.21-.05.25-.04.51-.03.78.04.01,0,.03.01.04.01.05.01.12.04.16.07.83.4.59,1.35.91,2.01.01.07.05.13.09.19.15.42.27.84.39,1.27.01.08.04.16.05.24.04.17.08.34.12.51h0c.01.11.04.19.05.28Z"/><path class="cls-1" d="m129.8,308.21c0,.17-.03.36-.07.54,0,.03-.01.05-.01.08-.16.56-.32,1.13-.62,1.64-.03.08-.07.15-.12.23l-.05.05c-.32.35-.68.59-1.15.59-.07.01-.12.01-.19,0-.03.01-.05,0-.08,0-.09-.04-.19-.08-.25-.12-.28-.17-.43-.4-.19-.82,1.09-.8-3.18-2.41.42-2.84-.03-.17-.03-.35-.09-.51-.19-.46-1.5-.7-.35-1.41.76-.48,1.26-.01,1.74.43.19.16.38.32.58.43.03.27.07.54.09.79.01.03.01.04.01.07.23.27.32.55.34.86Z"/><path class="cls-1" d="m173.92,224.09v2.95c-.01,4.09-.03,8.18-.03,12.28-1.03-3.02-.17-6.11-.47-9.15-.13-1.27.43-2.64-.47-3.82h0c-.07-.67.07-1.37-.6-1.82.04-.16.08-.29.15-.4.03-.05.05-.11.08-.15.34-.42.84-.13,1.34.12Z"/><path class="cls-1" d="m256.5,66.88c-.52,1.86-1.69,3.44-2.72,5.07-.04.05-.07.11-.11.16h-.54c0-.13.01-.25.03-.39.21-1.88,1.65-3.42,1.58-5.4-.03-.56.54-1.01,1.18-.95,1.11.09.68,1.15.58,1.51Z"/><path class="cls-1" d="m319.21,113.14c-.08.05-.15.09-.23.15-2.18,1.39-4.46,2.56-7.1,2.76,2.13-1.51,4.26-2.96,6.93-3.22.12-.01.24-.03.38-.03.09.11.09.21.03.34Z"/><path class="cls-1" d="m132.18,311.03c-.39.64-.48,1.74-1.72,1.18-.17-.08-.34-.17-.48-.28-.46-.29-.82-.67-1.06-1.18-.05-.12-.09-.25-.13-.39.03-.59-.05-1.21.59-1.55.2-.17.34-.38.42-.59.11-.28.13-.58.13-.88,0-.09-.01-.19-.01-.28.21-.17.42-.35.63-.51.16.16.27.34.36.54.56,1.26-.23,3.03,1.27,3.95Z"/><path class="cls-1" d="m127.13,304.23c-.44-.15-.79-.07-1.1.12-.58.34-1.02,1.01-1.74,1.06-.55.04-.87,1.22-1.54.52-.75-.78.28-1.26.55-1.84.08-.16.2-.29.35-.42.19-.17.4-.32.58-.48,1.06.09,2.1.23,2.91,1.03Z"/><path class="cls-1" d="m114.76,296c-.08,2.27-1.7,1.39-2.88,1.43-.13-.05-.21-.12-.23-.2-.01-.01-.01-.03-.01-.04h0s.01-.05.03-.08c.07-.11.12-.17.19-.17,1.02-.4-.12-1.21.32-1.72h.01c.17-.11.35-.23.51-.34.2-.13.42-.24.63-.31.2-.04.43-.04.67.05.21.39.43.76.64,1.15.04.07.08.15.12.21Z"/><path class="cls-1" d="m305.66,247.79c-.36-.19-.72-.36-1.09-.54.72-1.47.42-3.42,1.97-4.57,1.35,2.05-1.29,3.3-.88,5.11Z"/><path class="cls-1" d="m308.45,147.24c-.56.21-.35,1.15-1.1,1.19-.07-.17-.13-.36-.2-.54-.35-.95-.71-1.9-1.07-2.87-.03-.31,0-.56.08-.76.08-.2.23-.34.44-.4.19-.07.43-.07.72-.01.27.9.28,1.89.71,2.75.11.23.24.44.42.64Z"/><path class="cls-1" d="m224.92,317.5s-.01.04-.01.05c-.43,1.62-1.33,2.96-2.63,4.87-.17-2.36,1.22-3.54,1.74-4.95.09-.23.15-.47.17-.72.24.24.48.5.72.75Z"/><path class="cls-1" d="m324.25,155.75c-.32,1.89-1.73,2.73-2.86,3.78-.15-.39-.31-.76-.46-1.15,1.03-.84,1.66-2.17,3.31-2.63Z"/><path class="cls-1" d="m229.47,69.98c-.74.52-1.55.46-2.4.35.36-.21.54-.42.6-.63.15-.46-.25-.94-.52-1.41.04-.11.09-.21.13-.32.09-.34.11-.68.25-1.01.04-.04.09-.05.15-.07.01-.01.04-.01.05-.01.03-.01.05-.01.08-.01.11-.01.23.03.34.09.5.75.36,1.77.84,2.52.11.17.27.35.47.5Z"/><path class="cls-1" d="m262.82,286.28c-.72.68-1.57,1.17-2.91,1.38.59-1.13,1.38-1.55,2.24-1.9.28.11.6.16.67.52Z"/><path class="cls-1" d="m279.72,87.79c-.04.52-.21.98-.64,1.3-.03.29-.05.59-.08.88-.01.29-.04.59-.07.88-.32-.07-.5-.24-.44-.59-.03-.27-.04-.55-.05-.83-.01-.94.09-1.85.72-2.65h.35c.07.34.13.67.21,1.01Z"/><path class="cls-1" d="m304.92,154.15l-.5.5c-.11-.08-.19-.17-.27-.27-.52-.58-.68-1.34-.91-2.06.05-.17.15-.31.28-.39.01-.03.04-.04.07-.04.09-.07.2-.11.34-.12.56.54.71,1.25.88,1.96.03.15.07.28.11.43Z"/><path class="cls-1" d="m231.75,68.95c-.07.13-.12.27-.15.4-.17.16-.35.34-.52.51-.01-.27-.03-.54-.04-.8-.01-.48-.04-.95-.07-1.43.01-.47.12-.71.31-.79.05-.03.11-.04.17-.04.19,0,.42.09.68.27.35.75-.12,1.3-.39,1.89Z"/><path class="cls-1" d="m323.85,160.85c-.52.6-1.25.38-1.9.42-.03-.12-.03-.25,0-.38.54-.28,1.02-.8,1.72-.48.11.05.24.39.19.44Z"/><path class="cls-1" d="m130.43,308.44c-.11.13-.35.24-.7.31-.11.03-.21.04-.35.05.03-.48.05-.97.08-1.45.03-.01.07-.01.09-.05.15-.04.27-.12.36-.25.08.08.16.17.24.25.08.09.16.2.21.29.23.35.28.63.05.84Z"/><path class="cls-1" d="m264.44,285.1c-.54.4-1.07.79-1.62,1.18-.21-.17-.44-.35-.67-.52.56-.38,1.13-.74,1.69-1.11.2.15.4.31.6.46Z"/><path class="cls-1" d="m111.87,297.44c-.16.19-.31.38-.46.56-.08-.01-.16-.01-.24-.04-.54-.09-1.13-.35-1.01-.72.23-.66,1.09-.28,1.68-.29,0,.05,0,.11.01.16-.01.04,0,.07,0,.09,0,.08.01.16.01.24Z"/><path class="cls-1" d="m247.4,183.63c-.01.68-.44,1.11-1.09,1.41,0-.2-.01-.4-.01-.59v-.31c0-.24-.01-.48-.01-.72.36-.03.74-.05,1.1-.08.01.11.03.2.01.29Z"/><path class="cls-1" d="m266.65,33.11c-.24.04-.48.07-.71.07-.48.04-.87-.07-.94-.62-.03-.16-.03-.35.01-.59.78.04,1.31.44,1.64,1.14Z"/><path class="cls-1" d="m23.93,172.23c-.12-1.89-.19-3.78-.21-5.67.13.08.27.15.4.23.31,1.85.76,3.71-.19,5.44Z"/><path class="cls-1" d="m76.86,169.57c-.32.03-.55.15-.75.34.4-.44-.83-1.38-.09-2.17,1.01,1.97,1.88,1.38,3.2.08,6.51-6.31,14.19-9.73,23.47-8.77.08-.12.16-.23.24-.32.16-.17.34-.31.54-.42.11-.04.21-.08.34-.11.07-.01.13-.03.21-.03,2.55.66,5.15,1.13,7.63,1.92,2.94.94,5.47.72,7.98-1.39-2.16-1.88-4.91-2.13-7.43-2.95-.17-.04-.34-.09-.5-.15-.08-.03-.17-.05-.25-.08-.01,0-.04-.01-.05-.01h-.01c-.2-.05-.4-.12-.6-.17-2.04-.56-4.06-1.17-6.03-1.96-1.15-.46-2.41-1.03-2.27-2.52.17-1.65,1.58-1.69,2.81-1.57,1.35.13,2.21-.97,3.95-1.21-2-.79-3.54-.84-5.12-.35-.72.21-1.41.52-2.16.66q-2.83.5-1.98,3.2c.35,1.1.7,2.18-.47,2.84-.12.07-.25.13-.42.19-1.86.23-3.53-.68-4.4-1.96-1.27-1.84-3.75-2.76-4.02-5.39-.05-.43-.9-1.96-1.96-.62-.35.43-.4.46-.7.07-2.31-3.04-5.32-1.81-8.1-1.17-15.23,3.46-28.01,11-38.22,22.88-.74.86-1.8,1.6.24,2.51-2.24-.43-3.06.97-4.06,2.37-4.69,6.61-8,13.87-10.64,21.58-1.7-7.2-2.81-14.45-3.28-21.78,2.28,1.6.83,4.33,1.23,6.41.78,4.13,1.21,8.35,1.94,12.52.11.6.15,1.21-.04,1.81,2.29-7.01,5.17-13.73,9.49-19.74.97-1.35,1.74-2.79,3.4-3.65.95-.51.86-2.14,1.72-3.14,5.47-6.35,11.94-11.43,19.25-15.44,5.79-3.18,11.97-5.38,18.38-7.05,3.77-.98,7.28-.35,10.59,1.23,1.84.88,2.49,3.18,3.9,4.69,1.46,1.57,3.02,2.8,5.05,3.4.17.05.34.11.48.19,1.29-1.49-.07-2.81-.71-4.01-.99-1.84-.95-2.61,1.39-2.47,1.41.09,2.72-.27,4.05-.92,2.14-1.07,4.17-.03,6.17.79.42.16.64.46.46.84-.13.31-.59.79-.66.79-2.02-1.33-3.54,1.93-5.6.58-.52-.35-1.3,0-1.57.75-.31.86.36,1.25.95,1.47,2.17.83,4.37,1.6,6.57,2.33.58.2,1.31,0,1.54.78,3.57-.07,6.46,1.66,9.72,3.53-3.34,1.46-5.94,3.87-9.8,2.08-2.47-1.15-5.47-.86-7.9-2.39-.36.16-.72.31-1.09.46-.04.11-.08.23-.15.34-1.02.66-2.18.54-3.28.48-7.35-.36-13.19,3.03-18.67,7.37-1.19.95-2,2.25-3.93,2.41Z"/><path class="cls-1" d="m259.37,48.05c-.95.55-1.62.21-2.41-.04-5.64-1.89-11.34-3.58-17.16-4.88-3.04-.68-6.02-.68-8.9.66-.05.03-.09.05-.13.08-1.82,1.07-1.11,2.01-.11,2.94.13.12.25.24.39.35,5.08-.6,9.65,1.8,14.53,2.39.27.03.58.11.76.28,1.03.9,1.8-1.54,2.63-.31.71,1.07-.63,1.81-.97,2.72-.34.95,1.8.8.95,1.88-2.47,3.12-.03,5.36,1.34,7.77.28.5.8.99.44,1.47-.38.51-.98.15-1.53-.04-5.16-1.8-10.41-3-15.94-2-.79.15-1.77-.12-1.76,1.18-.11.13-.24.23-.38.29-.29.16-.64.16-1.01.11-.08-.03-.16-.04-.23-.08-.05-.01-.11-.03-.15-.05-.34-.12-.66-.28-.98-.42h0c-.12-.07-.24-.11-.38-.15-.08-.04-.16-.07-.25-.09-.42-.05-.79-.34-1.21-.36-.13,0-.27.01-.42.08-.6.09-1.26.11-1.68.7-.05.05-.11.11-.17.13-.08.08-.16.13-.24.17-.07.05-.13.09-.21.12-.03.01-.05.03-.08.04-2.76.51-5.27,1.86-8,2.52-.56.13-1.14.24-1.72.31-7.44,1.35-13.31,5.51-18.71,10.52-2.56,2.36-5.09,4.73-7.72,7.02-3.23,2.8-5,2.32-6.09-1.73-.24-.87-1.43-.44-1.37-1.43.63-.31,1.46.55,2.05-.52,1.41-2.56,3.62-4.53,5.56-6.7.5-.56,1.18-1.22.29-1.84-.72-.51-1.43-.01-1.9.68-1.68,2.47-4.26,3.81-6.55,5.6-.72-1.21.16-1.81.59-2.4,2-2.72,4.07-5.38,6.14-8.04.44-.58,1.26-1.07.52-1.89-.68-.76-1.45-.15-2.02.21-2.13,1.31-3.35,3.51-4.92,5.35-.66.78-1.17,2.04-2.37,1.35-1.29-.74-.28-1.9.08-2.73,2.39-5.63,6.81-9.5,11.55-13.12-2.35-.58-5.07.2-7.79,2.18-6.13,4.48-10.33,10.59-14.33,16.85-7.08,11.11-11.98,23.11-14.13,36.15-1.62,9.8-1.68,19.65-.59,29.5,1.69,15.2,5.83,29.96,8.47,44.98,1.45,8.28,2.72,16.58,2.75,25.04.04,13.86-2.75,26.88-11.57,37.99-7.76,9.76-18.12,15.07-30.29,17-10.71,1.69-21.15.63-31.27-3.35-.84-.34-1.7-.82-2.69-.6-.03,0-.07,0-.09-.01-.31-.03-.6-.15-.87-.29-.03-.01-.04-.03-.07-.04-.16-.08-.31-.17-.47-.24-.42-.24-.84-.47-1.27-.68-.27-.16-.55-.31-.83-.44,0-.01-.01-.01-.01-.01-.36-.04-.68-.13-.98-.27-.8-.35-1.37-1.01-1.73-1.89-15.91-9.92-24.93-23.73-24.36-43,.28-9.41,2.88-18.18,7.08-26.53.05-.13.09-.25.09-.36.03-.12.05-.24.11-.35.07-.23.17-.43.32-.62.11-.16.27-.31.47-.43,2.08-4.62,5.47-8.46,7.9-12.88-.03-.11-.05-.2-.05-.27-.03-.2.01-.34.11-.42.24-.27.86-.15,1.11-.42.17-1.01-.44-2.2,1.27-2.69.13-.04.21-.09.27-.15-.68.7-.67,2.31-1.45,3.14-.16.03-.32.05-.48.07-.23.21-.46.44-.68.64.28.51.13,1.05-.13,1.47-2.52,3.95-4.97,7.96-7.71,11.77-.08.04-.17.07-.25.09-.13.42-.27.82-.55,1.13.03.16.01.35-.03.55-2.45,6.39-5.12,12.73-6.06,19.6-2.44,17.83,2.65,32.84,16.77,44.41,2.09,1.72,4.29,3.32,6.49,4.93.12.38.29.72.52,1.03.63.47,1.38.7,2.2.8.98.62,1.97,1.22,2.96,1.82.12.16.24.31.36.46,0-.03.03-.05.04-.08,2.09-.82,3.86.43,5.66,1.03,10.24,3.47,20.68,4.12,31.16,1.76,19.26-4.34,31.19-16.35,36.2-35.43,3.42-12.98,2.08-25.91.07-38.89-1.43-9.3-3.66-18.44-5.59-27.65-2.59-12.35-4.76-24.8-4.34-37.46.83-24.77,9.7-46.34,26.69-64.46,2.48-2.65,5.46-4.62,9.1-5.36.92-.19,2.06-.46,2.59.47.6,1.09-.55,1.66-1.25,2.2-3.31,2.55-6.23,5.44-8.36,9.06-.64,1.09-1.5,2.14-1.42,3.75,1.47-.39,1.96-1.6,2.68-2.48,1.07-1.31,2.14-2.64,3.66-3.47.84-.46,1.82-.83,2.6.01.79.87.29,1.8-.29,2.56-1.96,2.53-3.85,5.11-5.68,7.77,1.49-.88,2.88-1.86,4.05-3.18.88-1.02,1.98-2.2,3.27-.86,1.23,1.26-.25,2.18-.98,3.06-1.54,1.89-2.92,3.99-4.77,5.55-1.68,1.43-.7,2.52.03,3.55.87,1.25,2.21,1.01,3.26.19,1.93-1.5,3.79-3.08,5.59-4.75,2.91-2.67,5.82-5.36,9.01-7.69,3.98-2.91,8.34-5.09,13.3-5.8.35.04.68.09,1.02.15,2.81-1.37,5.67-2.6,8.86-2.79.16-.03.34-.03.5-.04,0-.08.03-.17.07-.25.52-.67,1.17-.88,1.97-.64.42-.34.95-.25,1.46-.28.58.38,1.15.76,1.73,1.14h1.21v-.29c.28-1.31,1.37-1.33,2.4-1.54,4.36-.91,8.59-.23,12.79.99.88.27,1.73.72,2.95.68-.04-1.19-.84-2.04-1.33-2.95-.86-1.64-1.73-3.12.09-4.75,1.07-.97-.7-1.77-.38-2.81.58-1.92-1.07-1.27-1.88-1.45-4.93-1.06-9.8-2.41-14.82-2.99-.05-.08-.11-.15-.13-.23-1.53.03-2.24-1.29-2.29-2.35-.07-1.13,1.29-1.03,2.25-1.03.01-.05.01-.09.03-.15,2.75-2.39,5.98-1.82,9.06-1.23,4.99.94,9.78,2.6,14.64,4.06.87.27,1.69.82,2.84.64-8.7-6.3-18.07-10.96-27.95-14.64-1.03-.39-2.45-.4-2.81-1.76-1.06.32-2.05-.01-3.02-.36-8.63-3.12-17.56-5.12-26.49-7.18-1.78-.42-3.63-1.6-5.23-1.46-2.02.19-3.9-.19-5.83-.28-.83-.04-1.72-.01-2.37-.68-.12-.19-.11-.35-.05-.5.05.01.11.01.16.01l-.07-.05s.04,0,.05.01c2.79.46,5.51.86,8.39.92,2.59.05,5.35,1.26,8.04,1.9,5.8,1.41,11.62,2.8,17.29,4.62,1.58.51,2.08-.8,2.96-.68.78.12-.15,2.09,1.51,2.2,1.57.11,2.91,1.29,4.56,1.13.12.07.23.15.35.2,3.12,1.92,6.68,2.84,10.03,4.18,5.54,2.2,10.58,5.27,15.64,8.31,2.37,1.42,4.81,2.8,6.85,5.04Z"/><path class="cls-1" d="m111.95,155.3c-.23-.78-.97-.58-1.54-.78-2.2-.74-4.4-1.5-6.57-2.33-.59-.23-1.26-.62-.95-1.47.27-.75,1.05-1.1,1.57-.75,2.06,1.35,3.58-1.9,5.6-.58.07,0,.52-.48.66-.79.19-.39-.04-.68-.46-.84-2-.82-4.02-1.86-6.17-.79-1.33.66-2.64,1.02-4.05.92-2.35-.15-2.39.63-1.39,2.47.64,1.19,2,2.52.71,4.01l-.27.27c.83.74,1.66,1.46,2.48,2.18.35.47.74.84,1.19,1.14.21.15.46.27.7.36.16.08.34.15.51.2,2.43,1.53,5.43,1.23,7.9,2.39,3.86,1.8,6.46-.62,9.8-2.08-3.26-1.86-6.15-3.59-9.72-3.53Zm-.72.28h.01s.09-.05.13-.07c-.07.04-.12.07-.15.07Z"/><path class="cls-1" d="m80.62,298c-3.03,1.14-2.51,3.81-2.71,6.18-.12.17-.13.42-.17.64-.01.12-.05.23-.11.32-.07.12-.17.23-.36.28-.21-.28-.44-.55-.67-.83-.08-.09-.15-.19-.23-.28-.09-1.13-1.37-.23-1.78-1.26,2.68.31,2.43-1.61,2.28-3.14-.29-3.26.9-6.49-.03-9.73.28-.23.56-.36.86-.38.13-.03.27-.01.4.01h0c.15.04.31.09.47.2.36.24,1.17-.16,1.09.68,0,0,.01,0,0,.01.01.01,0,.03,0,.05-.05.09-.12.17-.17.27-.01.01-.01.03-.03.04-.32.29-.56.6-.63.95-.05.17-.05.35,0,.54.04.16.11.32.21.48.4,1.47-.97,3.63,1.66,4.24.04,0,.03.67-.08.71Z"/><path class="cls-1" d="m96.06,24.08c-.52-.49-1.22-.34-1.82-.52-.82-.25-1.3,2.3-1.89.42-.32-1.03-.93-3.02,1.01-3.84.67-.28,1.39-.9,1.62.62.11.75.94,1.49,2.01,1.65,2.83.43,1.25,1.39.23,2.26-.66.34-.85-.23-1.15-.59Z"/><path class="cls-1" d="m98.75,291.4c-1.67-1.02-3.36-1.64-4.54-3.04-.34-.41-.43-.79.08-1.16,1.69-1.22,3.16,1.57,4.85.25.51.93.41,2.04,1.16,2.98.32.4-1.49-.25-1.55.98Z"/><path class="cls-1" d="m86.99,293.45c1.27,1.2,1.41,2.84,1.67,4.41.15.88-.47,1.55-1.19,1.82-.7.26-.83-.43-.96-1-.43-1.96-1.29-1.65-2.08-.27-.43.75-.86,1.4-1.63.72-.89-.78.12-1.22.57-1.73.69-.78,1.54-1.32,2.5-1.69,1.11-.38-.62-2.2,1.14-2.26Z"/><path class="cls-1" d="m90.44,267.44c-.07.04-.15.07-.25.09-.08.01-.16.03-.27.03-.55-.48-1.07-.97-1.62-1.45-.05-.05-.12-.11-.17-.16-1.38-1.25-3.55-1.76-3.86-4.05.12-.13.25-.24.42-.31.17-.08.38-.11.58-.12.08.01.16.03.24.03.04,0,.08,0,.12-.01.34,0,.67-.11,1.01-.17.36-.08.72-.11,1.09.05.12.16.24.31.36.46.01.03.03.05.05.08-.55,2.16,1.68,2.92,2.28,4.5.23.44.4.86.04,1.03Z"/><path class="cls-1" d="m167.85,6.45c2.28,2.99,2.37,6.27,1.09,9.75-1-2.92.05-6.29-1.82-9.01.1-.38.34-.63.72-.73Z"/><path class="cls-1" d="m74.57,172.75c-.13.12-.25.24-.39.36-.23.21-.46.44-.68.64-.03.04-.07.07-.09.09-2.84-.23-5.7-.47-8.54-.71.03-.34.04-.67.07-1.01,3.2.2,6.42.42,9.64.62Z"/><path class="cls-1" d="m174.43,11.13c.87.9,1.74,1.8,2.63,2.69.47.47.44,1.04.21,1.53-.24.51-.81.37-1.23.23-.76-.26-3.02-.67-3.6-.49-.16-1.07,1.49-1.27,1.11-2.29.53-.42-.41-1.66.9-1.66Z"/><path class="cls-1" d="m20.89,151.65c1.9.28,1.76,2.43,2.78,3.59.22.24-.3.63-.66.68-.78.11-1.5-.08-1.83-.87-.37-.86-.09-2.16-1.62-2.17-.1,0-.32-.46-.26-.62.24-.65.87-.54,1.59-.62Z"/><path class="cls-1" d="m83.76,286.56c.73-.08,1.14-1.6,2.01-.63.54.61.38,1.71-.04,2.35-.5.76-1.4,1.27-2.12,1.89-.64.46-1.27.53-1.88-.07,1.03-1,1.73-2.2,2.08-3.6l-.05.07Z"/><path class="cls-1" d="m101.12,280.56c1.48.04,2.02,1.22,2.71,2.22.21-.22.41-.21.6.02-.31.68-.02,1.06.63,1.25-.04.85-.46.82-1.04.47-.42-.72-.66-1.22-1.89-.93-1.53.36-2-1.05-2-2.44.22-.38.55-.57.98-.59Z"/><path class="cls-1" d="m30.45,223.53c.14,3.51-.84,5.25-3.97,5.58.76-2.18,2.57-3.26,3.97-5.58Z"/><path class="cls-1" d="m104.02,284.52c.35-.16.69-.31,1.04-.47,1.14,1.46,2.28,2.93,3.41,4.39.26.26.24.5-.06.71-2.04-.99-3.76-2.3-4.39-4.63Z"/><path class="cls-1" d="m61.51,161.84c.56-.36,1.13-.72,1.69-1.08.22-.25.4-.23.57.06.98,1.21.39,2.49.18,3.75.24.28.2.52-.12.7-1.26-.09-1.24-.09-.9-1.16.37-1.17-.21-1.65-1.31-1.71-.21-.09-.3-.2-.26-.34.04-.15.1-.22.16-.22Z"/><path class="cls-1" d="m108.42,289.15c.02-.24.04-.48.06-.71,1.45.81,2.25,2.27,3.39,3.4.25.28.22.53-.08.76-2.09-.21-3.4-1.17-3.37-3.45Z"/><path class="cls-1" d="m125.9,315.58c.26.87,1.24.25,1.61.75.19.26.24.71.17,1.04-.11.53-.45.33-.81.14-1.61-.85-1.47.8-2.03,1.45-.38.32-.77.34-1.17.03-1.2-1.65,1.93-1.87,1.12-3.39.36-.31.73-.37,1.11-.02Z"/><path class="cls-1" d="m96.06,24.08c.38.2.77.39,1.15.59-.03.76,1.58.77.92,1.66-.64.85-1.6,1.46-2.44,2.15-.08.06-.37-.03-.48-.14-.4-.42-.23-.85.08-1.23.74-.9,1.15-1.86.78-3.04Z"/><path class="cls-1" d="m19.84,147.1c-.1,1.22.02,2.37-.94,2.18-1.44-.3-.61-1.95-1.16-2.88-.35-.58.24-1.33.71-1.21,1.16.29,1.52,1.27,1.4,1.92Z"/><path class="cls-1" d="m180.21,20.05c-1.29.13-2.57.11-3.86.01,0,0,0-.01-.01,0-1.5-.13-3-.36-4.52-.56.21-1.06.75-1.3,1.6-.76.7.44,1.18.4,1.57.11.11-.08.2-.19.29-.31t.01-.03c.15-.19.27-.42.39-.67,0,1.06.32,1.74,1.6,1.74.98,0,2.06-.34,2.94.47Z"/><path class="cls-1" d="m180.24,17.26c-.51-1.01-2.37-1.25-1.55-2.82.33-.63,1.12-.69,1.71-.26,1.49,1.08-.23,2-.16,3.08Z"/><path class="cls-1" d="m81.73,290.1c.63.02,1.25.05,1.88.07.06.96-.25,1.99.57,2.8.23.32.19.61-.12.85-1.78.1-1.76-1.78-2.77-2.52l.06.07c-.02-.47-.32-1.02.39-1.27Z"/><path class="cls-1" d="m98.25,276.05c1.37,1,2.25,2.35,2.84,3.91-.63.63-1.38.78-2.22.58-.08-1.15,1.15-2.93-1.4-2.87.06-.32.13-.64.19-.96-.18-.55.01-.78.59-.67Z"/><path class="cls-1" d="m83.81,286.49c-.99.88-2.14.93-3.57.7.24-1.14.82-1.9,1.87-2.15,1.21-.29,1.18.92,1.65,1.53l.05-.07Z"/><path class="cls-1" d="m81.29,291.3v3.48c-.95-.86-.97-2.18-2.21-2.22-.66-.89-.07-1.39.6-1.85l-.03.08c.76-.35,1.22.13,1.69.59l-.06-.07Z"/><path class="cls-1" d="m85.62,261.49c-.01.12-.07.25-.15.39-.24.01-.47.01-.71.01-.16.01-.34.01-.5.01-.27-1.65-2.83-1.85-2.47-3.89.23.29.47.54.75.72.63.47,1.38.7,2.2.8.01.42.35.74.6,1.09.19.25.34.52.27.86Z"/><path class="cls-1" d="m123.66,321.69c-.17.79-.34,1.59-.52,2.38-.84.3-.77,1.17-1.09,1.79-.26.1-.46.03-.61-.21-.19-.9-.37-1.8-.56-2.69.2-.28.3-.68.78-.61.46-.48,1.04-.61,1.67-.61.11-.02.22-.03.34-.05Z"/><path class="cls-1" d="m167.02,5.55c-.54-.08-1.12-.32-1.62-.21-1.24.28-.97-.7-1.22-1.28-.14-.33-.34-.66.1-.91.66-.37.99.26,1.39.54.63.44,1.67.49,1.64,1.6.09.31,0,.39-.29.24Z"/><path class="cls-1" d="m127.83,7.85c.99.47,1.29,1.43,1.51,2.4.07.33-.11.84-.56.77-1.21-.19-1.41-1.27-1.68-2.2-.13-.45.12-.89.73-.97Z"/><path class="cls-1" d="m68.8,297.32c-.4.36-.39,1.03-1.24.91-.94-.13-1.28-.68-1.42-1.44-.09-.48.13-1.1.72-.81.68.33,1.67.35,1.93,1.33Z"/><path class="cls-1" d="m125.9,315.58c-.37,0-.74.01-1.11.02-.78-.07-1.76-.34-.58-1.07.82-.5.97-1.39,1.71-1.81.24-.24.49-.25.75-.02.23.41.24.81-.07,1.2-.51.44-.62,1.05-.69,1.68Z"/><path class="cls-1" d="m85.95,309.21c-.81-.94-1.59-1.46-1.54-1.88.14-1.19,1.55-.54,2.21-1.17.2-.19.57-.07.67.47.25,1.39-1.83.79-1.34,2.58Z"/><path class="cls-1" d="m63.77,160.82c-.19-.02-.38-.04-.57-.06-.17-.57-.33-1.14-.5-1.72-.51-.43-.12-1.16-.53-1.62.67-.63.64-1.41.44-2.21.18-.22.38-.25.61-.08.49,1.87.61,3.77.54,5.69Z"/><path class="cls-1" d="m14.68,231.39c-.09-.13-.2-.25-.29-.39-.51-.67-1.02-1.35-1.51-2.02h-.03c-.12-.19-.24-.35-.38-.52,1.86-.35,2.59,1.13,3.26,2.31.42.74-.56.6-1.05.63Z"/><path class="cls-1" d="m214.05,21.23c-.47.9-.06,2.44-1.67,2.75-.47.09-.64-.69-.61-.71,1.4-.59.7-2.38,1.7-3.05.47-.31.6.44.58,1Z"/><path class="cls-1" d="m219.91,10.32c1.11,1.56.03,2.48,0,3.74-2.27-1.48-.47-2.45,0-3.74Z"/><path class="cls-1" d="m231.6,14.42c.49,1.26,1.76,2.65-.57,3.45-.17.19-.35.21-.53.01-.24-1.34.9-2.25,1.1-3.46Z"/><path class="cls-1" d="m119.75,314.81c.21-1.08.41-2.17.62-3.25.31-.26.65-.22.99-.07.04.6.08,1.2.11,1.8-.69.88.02,2-.51,2.91-1.14.18-1.08-.69-1.22-1.38Z"/><path class="cls-1" d="m229.89,24.14c-.03,1.09-1.31.86-1.69,1.59-.42-.74-3.29-1.45-.02-2.22.45-.31.86-.13,1.27.11.17.16.31.33.44.52Z"/><path class="cls-1" d="m72.19,161.14c-.75-1.05-2.51-.88-2.13-2.55.04-.16-.08-.58.45-.39,1.33.46,1.7,1.42,1.68,2.94Z"/><path class="cls-1" d="m89.81,290.58c-1.04-.9-1.83-1.43-2.37-2.15-.16-.21.55-.69,1.05-.58,1.28.29,1.15,1.31,1.32,2.73Z"/><path class="cls-1" d="m89.25,299.61c.72-.64,1.31-1.16,2.16-1.91-.14.96,1.12,1.56.22,2.3-.67.55-1.5-.13-2.38-.39Z"/><path class="cls-1" d="m229.37,24.08c-.39-.19-.79-.38-1.18-.58.37-.61.83-1.16.6-2-.33-1.18.63-.76,1.16-.85.03.39.05.77.08,1.16.44.95-.25,1.56-.66,2.26Z"/><path class="cls-1" d="m94.87,273.78c-.58-.63-1.22-1.24-1.2-2.2.19-.25.4-.27.63-.05,1.24.37,1.35,1.29,1.14,2.36.14.14.18.27.12.4-.06.12-.11.19-.16.19-.18-.23-.35-.46-.53-.69Z"/><path class="cls-1" d="m89.01,311.38c-.3-.24-1.01-.22-.68-.9.25-.52.28-1.36,1.26-1.14.42.09.71.27.49.71-.24.51-.02,1.43-1.07,1.33Z"/><path class="cls-1" d="m76.17,286.19c.74.68,1.79,1.11,1.92,2.31-.41.35-.86.26-1.32.13-.7-.66-.97-1.5-1.04-2.43.14-.22.29-.22.44,0Z"/><path class="cls-1" d="m121.36,311.49c-.33.02-.66.05-.99.07,0-.93,0-1.86,0-2.8,2.1.3.49,1.88.99,2.73Z"/><path class="cls-1" d="m68.9,156.03c.03.61-.19,1.2-.81,1.24-.27.02-.74-.56-.85-.94-.19-.64.21-1.02.89-1.1.61-.07.83.22.77.8Z"/><path class="cls-1" d="m84.06,293.82c.04-.28.08-.57.12-.85.48.26.94.82,1.5.11.77.44.5.99.17,1.55-1.09.82-1.84.91-1.78-.81Z"/><path class="cls-1" d="m81.91,274.34c.75-.44,1.51-.56,2.27-.04.09.67.09,1.55-.65,1.58-.81.04-1.37-.72-1.62-1.55Z"/><path class="cls-1" d="m65.78,39.76c.8-.56,1.24-1.64,2.39-1.49.09.01.23.71.12,1-.57,1.45-1.64.32-2.5.49Z"/><path class="cls-1" d="m60.92,157.46c-.5.8-.36,2-1.64,1.49-.32-.13-.84-.55-.8-.68.35-1.03,1.21-.92,2.44-.81Z"/><path class="cls-1" d="m111.78,292.6c.03-.25.05-.51.08-.76.65.4,1.32.79,1.2,1.72-.06.45-.23.83-.66,1.04-2.88.15.46-1.6-.61-2.01Z"/><path class="cls-1" d="m73.33,276.62c-.3.99,1.75,1.35.69,2.52-.15.16-.58.32-.68.24-.94-.79-.33-1.82-.36-2.76.12,0,.24,0,.36,0Z"/><path class="cls-1" d="m196.69,6.2c-.39-.2-1.24.71-1.09-.46.07-.55.52-.94,1.17-.87.6.07,1.11.38,1.06,1.01-.08,1.13-.82.03-1.14.32Z"/><path class="cls-1" d="m24.71,215.01c.34,1.02.53,1.83-.38,2.32-.19.1-.8-.13-.89-.35-.45-1.03.4-1.37,1.27-1.97Z"/><path class="cls-1" d="m95.4,274.47c.01-.19.02-.39.04-.58,1.09-.44,1.25.18,1.2,1.05-.23.12-.44.28-.69.36-.49.15-.91,1.23-1.45.3-.36-.62.7-.65.9-1.12Z"/><path class="cls-1" d="m7,119.59c1.84-.32,2.38.61,3.22,1.5-1.64.43-2.13-.58-3.22-1.5Z"/><path class="cls-1" d="m123.93,309.16c-.27-.54-.58-.93-.65-1.36-.08-.55.32-.84.87-.75.46.07,1.04.36.9.82-.14.47-.68.81-1.13,1.29Z"/><path class="cls-1" d="m77.89,307.19c-1.14-.01-.16-1.25-.63-1.77.04-.2.05-.43.09-.63.04-.13.08-.25.17-.36.08-.11.2-.2.38-.25l.72.72c-.03.19-.03.39-.11.55-.03.07-.04.13-.04.21-.07.62.47,1.55-.59,1.53Z"/><path class="cls-1" d="m82.14,277.71c.81.12.72.57.53,1.01-.2.46.06,1.28-.66,1.33-.77.04-.69-.66-.67-1.22.03-.6.21-1.06.79-1.12Z"/><path class="cls-1" d="m68.91,270.12c-.7-.76-1.41-1.52-2.11-2.28,1.4.11,2.07.93,2.11,2.28Z"/><path class="cls-1" d="m16.94,167.57c-.22,1.04.38,2.26-.81,3.29-.47-1.42-.21-2.43.84-3.25l-.04-.04Z"/><path class="cls-1" d="m90.42,311.81c.7-.42,1.39-.83,2.15-1.28.56,2.51-1.23,1.33-2.15,1.28Z"/><path class="cls-1" d="m32.26,92.03c-.09-.71.4-1,.79-.99.49,0,1.15.12,1.32.75.17.64-.37.79-.8.77-.49-.02-1.14.09-1.3-.53Z"/><path class="cls-1" d="m171.86,11.53c-.34-.48-1.07-.61-.83-1.36.17-.53.49-.75,1.01-.52.39.17.88.36.45.95-.22.3-.05.9-.63.92Z"/><path class="cls-1" d="m209.73,17.71c-.25-1.55-.47-2.45.22-3.23.06-.07.59.09.68.27.53,1.04-.44,1.62-.9,2.97Z"/><path class="cls-1" d="m183.76,20.27c-.13-1.09-.73-2.47,1.38-2.28-.09,1.03-.91,1.53-1.45,2.22l.07.06Z"/><path class="cls-1" d="m85.85,294.62c-.06-.52-.11-1.03-.17-1.55.5-.08.97-.06,1.31.38-.62.32-.59.72-.27,1.3.56,1.02-.2.97-.86.96,0-.36,0-.72,0-1.09Z"/><path class="cls-1" d="m79.68,290.7c-.12.64-1.27.96-.6,1.85.09.18.07.34-.04.5-1.67-1.29-1.36-2.05.64-2.36Z"/><path class="cls-1" d="m76.77,288.63c.44-.04.88-.09,1.32-.13.73.33.52.96.48,1.52-.58.06-1.15.11-1.73.17.02-.52.64-1.08-.08-1.56Z"/><path class="cls-1" d="m91.41,290.42c.33-1.16.47-1.88,1.13-2.25.06-.03.61.49.65.79.14,1.05-.68,1.08-1.78,1.46Z"/><path class="cls-1" d="m7.23,174.43c.78-.05,1.87-.29,1.65.96-.17.97-.97.26-1.5.1-.36-.31-.39-.67-.15-1.07Z"/><path class="cls-1" d="m75.1,284.69c-1.07-.61-1.45-1.46-.88-2.78.36.72,1.46.87,1.04,1.92.17.33.11.61-.16.86Z"/><path class="cls-1" d="m62.8,185.08c-.53-.84-.78-1.77-.82-2.76.21-.24.43-.26.68-.05.41.62.77,1.25.71,2.03.22.55.02.81-.57.78Z"/><path class="cls-1" d="m103.98,158.52c-.36.16-.72.31-1.09.46-.07.03-.13.05-.2.08-.28-.79-1.18-1.27-1.11-2.24.21.08.43.15.64.24.63.25,1.19.58,1.58,1.15.07.09.12.2.17.31Z"/><path class="cls-1" d="m16.98,167.6c-.1-1.24-.45-2.63,1.86-2.76-.72,1.03-1.31,1.88-1.9,2.73l.04.04Z"/><path class="cls-1" d="m123.66,321.69l-.18-.05-.16.1c.11-.91.23-1.82.34-2.73.39,0,.78-.02,1.17-.03-.39.9-.79,1.81-1.18,2.71Z"/><path class="cls-1" d="m80.77,303.22c0,.55-.06,1.01-.47,1.05-.92.09-.65-.94-1.09-1.36-.16-.15.25-.75.64-.69.59.09.89.56.92,1.01Z"/><path class="cls-1" d="m122.21,326.08h0s0,.07-.01.09c-.04.15-.08.21-.13.21v.44c0,.2,0,.4-.01.6-.56,0-1.17.08-1.55-.36-.08-.08-.15-.17-.21-.29.08-.7.62-.91,1.17-1.13.11.03.23.04.34.07.05.01.09.03.15.03h0s.07.03.09.03c.03.01.04.04.04.05.09.08.15.16.15.25Z"/><path class="cls-1" d="m90.86,294.11c.04.44-.23.58-.64.59-.46.01-.96.02-.94-.62,0-.31-.02-.79.55-.72.47.05.86.25,1.04.76Z"/><path class="cls-1" d="m121.66,322.35c-.09.42-.36.61-.78.61-.51-.77-1.35-1.54.03-2.28.13,0,.26,0,.39.01.12.55.24,1.1.35,1.65Z"/><path class="cls-1" d="m75.9,299.48c-.75.35-1.19.65-1.68.75-.39.08-.76-.33-.56-.65.21-.33.7-.56,1.11-.64.25-.05.57.26,1.13.55Z"/><path class="cls-1" d="m89.83,302.57c-.02.58-.46.88-.86,1.01-.32.1-.86-.18-.73-.6.11-.37.52-.74.89-.93.33-.16.72.01.71.51Z"/><path class="cls-1" d="m112.4,294.6c-.09-.55.17-.87.66-1.04.51.18.79.58.94,1.08-.61.2-1.21.39-1.82.59.07-.21.15-.42.22-.62Z"/><path class="cls-1" d="m120.88,316.08c.11-.95-.35-2.02.59-2.79-.03,1.34-.07,2.68-.1,4.02-.14.24-.27.23-.41,0-.08-.17-.11-.35-.08-.53-.3-.23-.3-.46,0-.69Z"/><path class="cls-1" d="m112.71,316.72c-.69-.09-.85-.4-.64-.76.2-.36.5-.76.85-.91.38-.16.64.19.59.61-.07.59-.5.87-.8,1.05Z"/><path class="cls-1" d="m120.96,317.31c.14,0,.27,0,.41,0,.69,1.14-.33,2.25-.07,3.38l-.2.03-.19-.04c.08-1.12-.4-2.25.05-3.37Z"/><path class="cls-1" d="m230.5,17.88c.18.04.35.04.53-.01-.05,1.09-.15,2.16-1.14,2.87.27-.94-.41-2.08.62-2.86Z"/><path class="cls-1" d="m98.87,280.54c.72-.27,1.39-.75,2.22-.58,0,.2.02.4.03.6-.08.62-.52.62-.98.59-.49-.07-1.13.19-1.27-.61Z"/><path class="cls-1" d="m60.81,178.52c-.89-.48-1.16-1.28-1.19-2.38,1.14.52.9,1.57,1.19,2.38Z"/><path class="cls-1" d="m63.23,155.13c-.2.03-.41.06-.61.08-1.23-1.04.28-1.59.06-3.04.84,1.39.63,2.18.55,2.96Z"/><path class="cls-1" d="m219.65,14.5c.59.03.93.46,1.08.98.12.41-.23.66-.63.64-.52-.01-.8-.37-.91-.84-.08-.35-.08-.72.47-.79Z"/><path class="cls-1" d="m82.59,306.54c.28.67.56,1.33,1.02,2.45-1.33-.65-1.19-1.57-1.67-2.13.22-.1.43-.21.65-.31Z"/><path class="cls-1" d="m178.17,8.92c-.35.68-.87.82-1.44.8-.06,0-.23-.54-.15-.62.45-.46.99-.32,1.58-.18Z"/><path class="cls-1" d="m174.43,11.13c-.3.55-.6,1.1-.9,1.66.18-.7-.81-1.49.13-2.09.29-.18.67,0,.77.43Z"/><path class="cls-1" d="m126.79,15.62c.37,0,.78.04.82.48.06.66-.46.67-.92.66-.37,0-.75-.08-.69-.6.05-.46.41-.52.78-.54Z"/><path class="cls-1" d="m7.23,174.43c.05.36.1.71.15,1.07-.55-.15-1.51.35-1.59-.42-.1-.95.89-.55,1.44-.65Z"/><path class="cls-1" d="m16.21,175.29c-.93.2-1.66.37-1.79-.3-.14-.75.49-.57.92-.34.23.12.43.32.87.64Z"/><path class="cls-1" d="m62.66,182.27c-.23.02-.45.03-.68.05-.44-.59-1.25-1.1-.23-2.28.35.87.63,1.55.9,2.23Z"/><path class="cls-1" d="m126.54,312.76c-.21,0-.42-.02-.62-.03,1.12-.41.14-1.86,1.15-2.33.23.23.46.47.69.7.11.93.05,1.74-1.22,1.66Z"/><path class="cls-1" d="m62.17,157.43c1.6.07.05,1.18.53,1.62-2.5.23-.44-1.05-.53-1.62Z"/><path class="cls-1" d="m62.8,185.08c.19-.26.38-.52.57-.78.35.83.7,1.65,1.04,2.48-.34.33-.67.33-1.01,0-.2-.57-.4-1.14-.6-1.7Z"/><path class="cls-1" d="m39.01,186.75c.44.05.81.43.64.7-.19.3-.74.42-1.15.51-.14.03-.52-.33-.49-.41.16-.45.47-.79,1-.81Z"/><path class="cls-1" d="m120.88,316.08c0,.23,0,.46,0,.69-.98-.31-2.19-.48-1.13-1.97.64.19.26,1.29,1.14,1.27Z"/><path class="cls-1" d="m63.82,165.27c.04-.23.08-.47.12-.7.77-.34,1.55-.7,1.95.54-.66.42-1.38.17-2.07.16Z"/><path class="cls-1" d="m65.51,186.73c-.04.12-.08.24-.11.36-.13.42-.27.82-.55,1.13-.09.09-.2.19-.34.27.05-.13.09-.25.09-.36.07-.7-.67-.86-1.09-1.23-.04-.03-.08-.07-.12-.11h1.01c.36-.03.72-.04,1.1-.05Z"/><path class="cls-1" d="m51.95,195.02c.08.48,0,.77-.5.72-.43-.05-.59-.35-.62-.73-.03-.37.06-.77.48-.81.64-.07.64.45.65.82Z"/><path class="cls-1" d="m54.76,204.58c-1.22.43-2.1.31-3.08,0,.98-.27,1.85-.43,3.08,0Z"/><path class="cls-1" d="m54.69,242.19c-.33.19-.52.4-.73.42-.39.02-.71-.2-.57-.63.05-.15.44-.29.66-.27.19.01.36.26.64.48Z"/><path class="cls-1" d="m48.17,249.56c-1.3-.12-1.84-.42-1.85-1.23,0-.18.3-.51.45-.51,1.01.02.73,1,1.4,1.74Z"/><path class="cls-1" d="m98.25,276.05c-.2.22-.39.44-.59.67-1.48.05-.96-1.09-1.1-1.85.58.36,1.53.2,1.68,1.18Z"/><path class="cls-1" d="m216.93,20.89c-.4.87-1.01.96-1.66.86-.09-.01-.26-.51-.17-.63.43-.59,1.02-.66,1.83-.23Z"/><path class="cls-1" d="m23.72,166.45c-.04-.05-.11-.05-.17-.03-.35.11-.94.78-.71-.31.15-.66.13-1.5.86-1.94.01.4.01.8.01,1.21.01.36.01.71.01,1.07Z"/><path class="cls-1" d="m159.75,2.57c.14.12.51.35.48.4-.2.39-.39.86-.73,1.08-.32.2-.74-.06-.69-.52.05-.48.36-.8.93-.95Z"/><path class="cls-1" d="m150.12,6.93c-.61-.05-.72-.41-.64-.77.07-.35.3-.68.74-.63.43.05.69.38.57.74-.1.29-.47.48-.66.66Z"/><path class="cls-1" d="m167.85,6.45c-.24.24-.48.49-.72.73-1.03-.48-.09-1.09-.1-1.63.14-.03.24-.11.29-.24,1.22-.11,1.18.38.53,1.14Z"/><path class="cls-1" d="m88.19,147.79c.7.22.51.72.46,1.12-.02.19-.08.53-.48.29-.43-.25-.71-.58-.54-1.07.06-.18.4-.26.56-.35Z"/><path class="cls-1" d="m191.83,8.41c.33.31.76.51.78.76.05.5-.39.5-.74.36-.29-.12-.56-.3-.84-.45.25-.21.5-.41.8-.66Z"/><path class="cls-1" d="m165.91,8.02c-.31.14-.62.36-.95.4-.35.05-.42-.31-.21-.48.26-.22.63-.32.96-.47.06.15.11.3.21.55Z"/><path class="cls-1" d="m85.67,300.69c.13-.07.41-.3.73-.35.55-.09.62.38.43.67-.15.24-.58.35-.9.39-.18.02-.58-.09-.26-.71Z"/><path class="cls-1" d="m170.09,5.74c.22.17.5.38.77.59-.33.17-.64.39-.98.49-.38.11-.44-.25-.43-.51.01-.33-.01-.79.65-.57Z"/><path class="cls-1" d="m194.35,4.85c-.06.09-.23.49-.3.47-.45-.12-.82-.42-.82-.92,0-.2.23-.57.36-.57.53,0,.77.36.76,1.02Z"/><path class="cls-1" d="m73.33,276.62h-.18s-.18,0-.18,0c-.16-.51-.33-1.03-.49-1.54.17-.05.39-.19.51-.13.84.39.2,1.12.34,1.68Z"/><path class="cls-1" d="m88.79,305.18c.74,1.23.99,1.84.38,2.57-.91-.61-.48-1.36-.38-2.57Z"/><path class="cls-1" d="m61.51,161.84c.03.19.07.38.1.56-.53-.04-1.05-.07-1.58-.13-.02,0-.07-.38.02-.49.49-.64.97-.05,1.46.06Z"/><path class="cls-1" d="m75.1,284.69c.05-.29.1-.57.16-.86.3.79.61,1.57.91,2.36h-.22s-.22,0-.22,0c-.57-.35-.78-.86-.63-1.51Z"/><path class="cls-1" d="m88.06,292.08c-.44.16-.34-.23-.32-.4.03-.26.16-.5.24-.76.21.1.53.14.61.3.21.46-.26.6-.53.86Z"/><path class="cls-1" d="m208.81,23.41c.18.71-.3.68-.59.68-.33,0-.77-.1-.61-.61.1-.33.33-.61.5-.92.26.31.52.63.7.85Z"/><path class="cls-1" d="m123.44,24.14c-.4-.16-.72-.24-.56-.63.14-.34.34-.65.51-.97.22.28.6.54.61.83.01.26-.37.54-.55.77Z"/><path class="cls-1" d="m184.12,12.74c-.1.12-.23.41-.43.47-.56.17-.81-.24-.92-.7-.02-.08.34-.32.54-.35.34-.05.73-.04.8.57Z"/><path class="cls-1" d="m194.55,12.83c-.41.06-.79.1-.81-.43,0-.42.26-.76.66-.67.3.07.69.37.78.65.21.66-.47.26-.63.45Z"/><path class="cls-1" d="m202.01,10.88c.54.13,1.09.25,1.76.41-.75.69-1.27.34-1.76-.41Z"/><path class="cls-1" d="m167.78,333.66c-.2-.17-.4-.33-.6-.5,1.21-2.53,3.45-3.79,5.89-4.85.68-.3,1.24-.47,1.74.18.46.6.73,1.22.5,2.06-.23.82-.67,1.06-1.43.9-2.49-.52-3.59,2.78-6.09,2.22Z"/><path class="cls-1" d="m126.54,312.76c.41-.55.81-1.11,1.22-1.66.35-.25.7-.5,1.04-.75.97.25,1.29,1.08,1.67,1.86-.39.36-.78.73-1.16,1.09-.36-.4-.72-.44-1.07.02-.08,1.52-.92.92-1.65.59-.02-.38-.03-.76-.05-1.14Z"/><path class="cls-1" d="m134.87,328.53c-.76-.01-1.54-.13-2.28-.02-.76.12-1.6.25-1.91-.49-.33-.78.74-1.07,1.05-1.68.19-.2.42-.33.7-.35.84.06,1.62.28,2.31.77.42.56.99,1.11.13,1.76Z"/><path class="cls-1" d="m132.17,326.33l-.22.05-.22-.03c.26-.86-.6-2.26.94-2.49,1.06-.16,2.39-.42,2.82,1.17-.19.53-.57.88-1.08,1.09-.72.43-1.53-.24-2.25.21Z"/><path class="cls-1" d="m134.47,325.83c.34-.27.69-.54,1.03-.8.22.4.43.8.65,1.2-.05.68.78,1.01.68,1.71-.65.19-1.3.39-1.95.58.4-.69-.24-1.1-.42-1.64-.33-.36-.34-.71.02-1.05Z"/><path class="cls-1" d="m132.72,315.95c0,.84-.45,1.22-.86,1.18-.61-.05-1.34-.24-1.44-1.07-.04-.36.04-.88.46-.8.67.13,1.3.48,1.84.69Z"/><path class="cls-1" d="m143.03,318.54c-.17-1.21-.23-1.96.84-2.09.37-.05.9-.03.89.4-.03.98-.79,1.33-1.73,1.69Z"/><path class="cls-1" d="m131.61,322.21c.06.64-.4.83-.76,1.1-.31-.6-.67-1.17-.91-1.79-.13-.33-.02-.81.45-.8.98.02.72,1.11,1.22,1.5Z"/><path class="cls-1" d="m128.24,322.59c-.42.77-.7,1.53-1.58,1.79-.09.03-.48-.44-.44-.6.24-.93.67-1.66,2.02-1.19Z"/><path class="cls-1" d="m128.8,320.99c-.09.57-.39.94-.94.74-.29-.1-.49-.49-.72-.75.39-.22.76-.51,1.18-.64.69-.21.3.45.48.64Z"/><path class="cls-1" d="m206.58,321.92c2.03.79,1.98,1.65,1.74,2.62-1.2-.33-.97-1.34-1.74-2.62Z"/><path class="cls-1" d="m208.63,326.09c.53.54,1.17.98.74,1.82-.05.1-.37.19-.48.13-.83-.51-.43-1.22-.26-1.95Z"/><path class="cls-1" d="m136.82,327.95c-.15-.6-2.18-.46-.68-1.71.52.45,1.78.62.68,1.71Z"/><path class="cls-1" d="m148,326.51c.76.02,1.03.22.86.5-.16.27-.51.48-.82.6-.34.14-.51-.11-.39-.43.12-.33.33-.63.35-.67Z"/><path class="cls-1" d="m150.08,319.2c.27.32.55.51.57.72.01.17-.3.36-.47.55-.16-.19-.41-.36-.44-.56-.03-.18.18-.4.34-.71Z"/><path class="cls-1" d="m122.06,326.39c-.01-.21-.03-.41-.04-.62.26-.65-.58-2.01,1.12-1.7-.36.77-.72,1.55-1.09,2.32Z"/><path class="cls-1" d="m163.28,327.92c-.81-.26-1.19-.7-1-1.42.04-.15.56-.36.67-.28.65.45.35,1.07.32,1.71Z"/><path class="cls-1" d="m128.24,313.31c-.05-.49-.45-1.19.5-1.2.91-.02.61.68.57,1.19-.36,0-.71.01-1.07.02Z"/><path class="cls-1" d="m224.36,63.53s-.05.08-.09.12c-.72,1.21-.64,2.47-.39,3.81.17.95-.12,1.88-.71,2.67-.04.07-.09.12-.15.19-2.25-2.68-5.2-3.99-8.59-4.49.31-.15.6-.31.91-.46,2.81-1.37,5.67-2.6,8.86-2.79.11.08.17.17.24.25.12.23.09.46-.08.7Z"/><path class="cls-1" d="m115.92,286.63c2.29-1.46,3.81-.62,4.86,2.87-2.03-.49-4.18-.4-4.83-2.94l-.03.07Z"/><path class="cls-1" d="m158.67,152.43c-1.01-1.3-2.54-2.23-2.81-4.04.07-.38.3-.64.64-.82.37-.09.71-.05.96.29.24,1.34,1.94,1.89,1.84,3.41.56.24.89.58.51,1.22-.39.2-.77.13-1.14-.05Z"/><path class="cls-1" d="m182.67,205.65c-.73.05-1.89,1-1.91-.77-.01-.96.76-.94,1.39-.79,1.01.24,2.67.06,2.6,1.4-.05,1.05-1.31.29-2.09.16Z"/><path class="cls-1" d="m89.91,267.55c.16-.38.32-.76.48-1.14.18.32.46.62.52.96.11.67,1.92.78.64,1.82-.56.45-1.39.63-2.02.1-.87-.73.78-1.03.38-1.73Z"/><path class="cls-1" d="m173.92,224.09c-.53.09-1.14-.07-1.56.42-1.22-.41-1.96-1.25-2.63-2.88,1.68.98,2.94,1.72,4.2,2.46Z"/><path class="cls-1" d="m156.45,148.05c-.2.11-.39.23-.59.34-.63-.92-1.94-1.99.5-2.21,1.43.56.56,1.23.09,1.87Z"/><path class="cls-1" d="m172.06,150.1c-.27-.51-.69-1.07-.84-1.69-.14-.58.29-1.18.89-1.09,1.05.16-.08,1.24.59,1.75.29.22.24.89-.64,1.02Z"/><path class="cls-1" d="m156.45,148.05c-.02-.62.94-1.29-.09-1.87,1.02-.67,1.61.13,1.98.77.45.79-.38.78-.88.91-.34.06-.68.13-1.01.19Z"/><path class="cls-1" d="m94.29,271.53c-.21.02-.42.03-.63.05-1.64.16-1.82-.77-1.5-2.22,1.11.37,1.7,1.19,2.13,2.17Z"/><path class="cls-1" d="m88.92,271.72c-.02.44-.28.71-.67.73-.45.02-.62-.34-.64-.74-.02-.34-.14-.84.36-.86.5-.02.78.41.95.87Z"/><path class="cls-1" d="m159.87,152.28c-.19-.34-.37-.68-.56-1.02.42-.25.79-.93,1.36-.38.55.53.68,1.24.29,1.96-.62.31-.9-.04-1.08-.56Z"/><path class="cls-1" d="m104.43,282.8c-.2,0-.4-.01-.6-.02.04-.88-.1-1.85,1.09-2.25.15.83.68,1.71-.49,2.27Z"/><path class="cls-1" d="m162.97,164.94c.37.42.62.59.69.81.13.4-.11.71-.5.79-.1.02-.36-.31-.38-.5-.03-.29.09-.6.19-1.1Z"/><path class="cls-1" d="m159.87,152.28c.36.19.72.37,1.08.56-.99,1.14-1.63.32-2.28-.42.4-.05.8-.1,1.19-.14Z"/><path class="cls-1" d="m103.05,271.96c1.25.18.86,1.12,1.66,1.93-1.86-.2-1.25-1.38-1.66-1.93Z"/><path class="cls-1" d="m115.95,286.56c-1.08.73-1.54-.01-2.27-.66,1.44-.93,1.61.4,2.24.74l.03-.07Z"/><path class="cls-1" d="m161.96,93.98c-.07.38-.25.6-.53.44-.17-.1-.31-.4-.33-.61-.02-.25.11-.56.46-.35.19.12.29.37.4.52Z"/><path class="cls-1" d="m169.29,162.79c.67-.54,1.33-.43,2.06-.06-.7.59-1.35.75-2.06.06Z"/><path class="cls-1" d="m299.98,134.83c-.03,1.71,1.58,2.76,1.76,4.38.26.53.04.7-.48.65-.57-1.6-1.89-.96-2.98-1.01-1.83-1.29-1.02-3.45-1.68-5.13,1.11.53,2.26-.98,3.36.06.35.34.36.69.02,1.05Z"/><path class="cls-1" d="m256.97,64.17c-.83-1.37.44-7.86,1.9-9.66.54,1.99-.57,7.64-1.9,9.66Z"/><path class="cls-1" d="m305.06,97.74c-.55.87-1.51,1.64-.63,2.86.31.42.11,1.17-.58,1.34-.71.18-1-.37-1.09-.95-.16-.96-1.74-1.61-.91-2.66.7-.87,1.9-1.14,3.2-.59Z"/><path class="cls-1" d="m309.79,88.85c-1.44.76-2.62-.69-3.99-.46-.29.05-.91-.73-.46-1.05.86-.61.03-1.73.75-2.13.59-.33,1.18.36,1.19.82.06,1.66,2.25,1.3,2.51,2.82Z"/><path class="cls-1" d="m249.16,57.3c.11-.1.29-.41.47-.41,1.75.02,3.51.03,5.25.19.44.04.54.69.41,1.18-.04.17-.19.47-.24.46-1.96-.32-3.92-.67-5.88-1.03-.02,0,0-.17,0-.4Z"/><path class="cls-1" d="m272.87,73.19c1.75.49,3.95.67,2.26,3.43-.33.27-.65.31-.97-.02-.22-1.08-2.15-.77-1.85-2.28-.28-.61.06-.91.56-1.14Z"/><path class="cls-1" d="m231.05,47.15c-.08.01-.15.01-.23.01-1.53.03-2.24-1.29-2.29-2.35-.07-1.13,1.29-1.03,2.25-1.03h.12c1.23,1.07-.32,2.27.15,3.36Z"/><path class="cls-1" d="m307.35,129.11c-.13.25.26,1.06-.44.85-.69-.21-1.83-.08-1.87-1.29-.03-.77.34-1.24,1.18-1.18.97.07,1.23.68,1.14,1.62Z"/><path class="cls-1" d="m273.37,57.59c.12.71-.2,1.06-.9,1-.75-.07-1.65-.25-1.69-1.08-.04-.74.9-1.07,1.51-1.2.86-.18.91.68,1.08,1.28Z"/><path class="cls-1" d="m231.52,65.32c-.08.07-.16.12-.24.16-.12.08-.25.11-.39.08-.15,0-.28-.05-.44-.16-.68-.39-.13-1.21-.59-1.66-.11-.16-.16-.31-.17-.46-.04-.17-.01-.34.08-.51.03-.09.09-.17.16-.27h1.6c.32.94.56,1.88,0,2.81Z"/><path class="cls-1" d="m299.98,134.83c0-.35-.02-.7-.02-1.05,1.37,0,3.5-1.61,3.4,1.58-.43,0-.75,1.11-1.29.12-.48-.89-1.22-.98-2.09-.64Z"/><path class="cls-1" d="m310.14,92.44c1.3.04,1.6.68,1.16,1.85-.23.61-.33,1.41-1.16,1.31-.74-.09-.5-.86-.58-1.37.23-.58.22-1.24.57-1.78Z"/><path class="cls-1" d="m307.32,143.85c-.59.21-.96.65-1.24,1.18-.34-.39-.68-.78-1.03-1.17.68-.62-.21-1.53.41-2.16,1.2.21,1.36,1.32,1.86,2.14Z"/><path class="cls-1" d="m244.65,32c1.46-.74,2.39-.74,3.27-.11.07.05-.04.57-.2.71-1.04.84-1.82.14-3.06-.6Z"/><path class="cls-1" d="m305.06,141.09c-.61-.75-2.95-1.13-.56-2.54.77.72,1.69,1.41.56,2.54Z"/><path class="cls-1" d="m233.95,26.74q-2.21.09-2.49-2.27c1.28.31,1.51,1.55,2.49,2.27Z"/><path class="cls-1" d="m236.31,30.26c.93-.09,1.27.58,1.5,1.26.11.31-.13.9-.5.71-.64-.32-1.26-.82-1.69-1.39-.22-.3.32-.52.69-.58Z"/><path class="cls-1" d="m272.87,73.19c-.19.38-.37.76-.56,1.14-3.83.29-.35-1.61-.71-2.36.49,0,.82.25,1.07.66.07.19.14.38.2.57Z"/><path class="cls-1" d="m265.71,77.85c.95-1.21,1.99-.41,3.4-.89-1.34,2-2.43.19-3.4.89Z"/><path class="cls-1" d="m295.43,71.79c-.94-.7-2.51.61-3.19-.99q1.84-.48,3.19.99Z"/><path class="cls-1" d="m300.01,124.77c-1-.76-1.94-1.04-2.35-2.42,1.58.02,2.48.34,2.35,2.42Z"/><path class="cls-1" d="m263.25,52.9c-.85.07-1.63-.1-2.35-.72,1.05-.86,2.01-.97,2.92.16-.03.34-.35.4-.56.57Z"/><path class="cls-1" d="m230.44,65.39c.36-.03.71-.05,1.07-.08.79.37.72,1.05.63,1.74-.62-.29-.96-.01-1.17.56-.6-.64-.41-1.47-.53-2.23Z"/><path class="cls-1" d="m258.39,38.7c.38.46.03.58-.33.63-1.04.16-.86-.66-.95-1.24-.06-.42-.25-1.05.39-1.06,1.19-.01.41,1.19.89,1.66Z"/><path class="cls-1" d="m281.09,73.78c-.83-1.14.18-1.83.47-2.91.72,1.31.2,2.12-.47,2.91Z"/><path class="cls-1" d="m272.67,72.62c-.47-.04-.87-.18-1.07-.66.08-.64.32-1.56.97-1.28.74.31.41,1.26.1,1.94Z"/><path class="cls-1" d="m310.14,92.44c.8.91,1.2,1.7-.57,1.78-.91-.95-1.07-1.66.57-1.78Z"/><path class="cls-1" d="m274.16,76.6c.32,0,.65.01.97.02.44.35,1.02.85.2,1.21-1.17.51-1.06-.54-1.17-1.23Z"/><path class="cls-1" d="m298.79,72.9c1.34-.67,1.9.11,2.65.65-1.2.92-1.86.23-2.65-.65Z"/><path class="cls-1" d="m305.46,141.7c-.2.71.75,1.63-.41,2.16.3-.79-1.7-1.59.01-2.38.11.11.25.18.4.22Z"/><path class="cls-1" d="m229.37,24.08c-.32-.91.76-1.41.66-2.26.44.8,1.83,1.65-.13,2.32h-.27s-.26-.06-.26-.06Z"/><path class="cls-1" d="m263.25,52.9c.19-.19.38-.38.56-.57.77.41,1.79.46,2.24,1.61-1.19.21-1.87-.81-2.8-1.04Z"/><path class="cls-1" d="m279.07,89.09c0-.54-.02-1.08.64-1.29.54.19,1.14.48.94,1.13-.34,1.11-1.07-.09-1.58.17Z"/><path class="cls-1" d="m309.57,132.62c0,.47-.23.72-.66.61-.58-.15-.92-.59-1.02-1.17-.1-.51.27-.69.65-.57.53.16.98.5,1.04,1.13Z"/><path class="cls-1" d="m279.5,86.78h-.17s-.17,0-.17,0c0-1,0-2.01,0-3.67.76,1.63.38,2.66.34,3.67Z"/><path class="cls-1" d="m280.33,77.14c.12-.9.2-1.45.27-2,.75.62.77,1.18-.27,2Z"/><path class="cls-1" d="m294.43,118.98c.46.12.87.38.88.85.01.47-.52.55-.81.47-.29-.08-.61-.41-.7-.7-.12-.41.19-.64.62-.63Z"/><path class="cls-1" d="m277.23,48.19c-.05.49-.39.75-.71.68-.29-.06-.65-.41-.72-.7-.14-.55.41-.43.67-.42.3.01.73,0,.75.44Z"/><path class="cls-1" d="m265.06,38.61c-.23.31-.17.73-.62.52-.36-.17-.6-.42-.58-.84.03-.5.45-.67.76-.52.24.12.32.58.44.84Z"/><path class="cls-1" d="m236.78,15.6c-.48.59-.23,1.58-1.09,1.99-.68-1.3.45-1.5,1.13-1.96l-.03-.03Z"/><path class="cls-1" d="m284.19,156.3c-.18,1.37-1.02,2.25-2.47,2.49-.66.11-1.57-.03-1.42-.83.3-1.65,2.32-1.52,3.24-2.67.24-.3.62.44.65,1.02Z"/><path class="cls-1" d="m275.1,176.9c-.45.56-1.24.31-1.89.4-.48.07-.92-.24-.68-.83.26-.65.69-1.1,1.47-.65.42.24,1.18.07,1.1,1.08Z"/><path class="cls-1" d="m273.34,168.28c.71.24.97.86,1.15,1.42.19.58-.34.81-.8.71-.71-.16-1-.73-.95-1.43.03-.34.15-.7.59-.7Z"/><path class="cls-1" d="m288.1,139.29c.48.29,1.28.43.57,1.26-.41.09-1.1.37-1.18.25-.43-.69.59-.91.61-1.51Z"/><path class="cls-1" d="m252.37,185.78c-.04.44-.05.89-.58.78-.15-.03-.34-.46-.29-.65.05-.22.31-.5.53-.56.41-.11.31.27.33.43Z"/><path class="cls-1" d="m282.98,169.88c.24.31.47.49.5.68.02.18-.19.38-.3.57-.18-.17-.44-.31-.5-.52-.05-.15.15-.39.31-.73Z"/><path class="cls-1" d="m332.81,150.76c-1.55-.29-2.21-1.5-3.72-1.35.97-1.55,2.34-2.36,2.25-4.11,1.47,1.76.28,3.72,1.47,5.46Z"/><path class="cls-1" d="m308.78,237.49c.64,1.31.17,1.84-1.29,1.95.21-.95.31-1.74,1.29-1.95Z"/><path class="cls-1" d="m299.06,253.29c-.3-1.16-.24-2.16.34-2.15,1.08.01.02.7.07,1.1.03.22-.17.48-.41,1.05Z"/><path class="cls-1" d="m295.89,136.01c-1.63-.13-3.23.83-4.08-1.13-.22-.52-.17-.95.34-1.12,1.79-.6,2.67.6,3.74,2.25Z"/><path class="cls-1" d="m294.61,139.86c.36.77,1.47.27,1.42,1.22-.01.3.05.79-.56.67-.62-.12-1.37-.09-1.44-.95-.02-.26.32-.56.57-.95Z"/><path class="cls-1" d="m300.03,144.53c1.58.41,1.78,1.37,1.07,2.69-.79-.72-.9-1.72-1.07-2.69Z"/><path class="cls-1" d="m303.92,151.76c-.23.19-.46.37-.68.56-.47-.5-1.01-.98-.46-1.74.69.1,1.17.4,1.14,1.19Z"/><path class="cls-1" d="m298.23,139.89c1.38-.17,1.1.84,1.15,1.62-1.38.17-1.06-.88-1.15-1.62Z"/><path class="cls-1" d="m303.36,143.81c.88,1.2,1.29,2.55,1.18,4.04-.23.25-.41.2-.55-.1-.62-1.25-1.04-2.53-.63-3.94Z"/><path class="cls-1" d="m303.99,147.75c.18.03.37.06.55.1.5.69,1.75,1.03,1.08,2.27-1.94.17-1.28-1.45-1.63-2.37Z"/><path class="cls-1" d="m301.25,139.86c.16-.22.32-.44.48-.65.57.78,1.07,1.58.5,2.58-.93-.33-.54-1.34-.98-1.92Z"/><path class="cls-1" d="m228.91,63.24c-.01.13-.05.27-.12.4-.19.17-.39.36-.59.54-.09.13-.21.21-.36.23h-.04s-.03,0-.05-.01c-.03.01-.05,0-.08-.01h-.04c-.24-.25-.35-.58-.47-.9-.08-.59.29-1.35-.62-1.65.07-.08.13-.15.2-.19.42-.34.95-.25,1.46-.28.19.32.43.64.59.98h0c.12.29.19.58.12.9Z"/><path class="cls-1" d="m227.16,63.48c.19.23.38.45.58.68.3.95.35,1.89-.04,2.83-.18.43-.36.87-.54,1.3,0-1.6,0-3.2,0-4.81Z"/><path class="cls-1" d="m225.3,65.42c-.21-.07-.34-.19-.39-.34-.24-.48.08-1.27-.64-1.43,0-.04,0-.08-.01-.12-.01-.2-.01-.39-.03-.58-.01-.13-.01-.25-.03-.38.16-.03.34-.03.5-.04.05-.01.11-.01.16-.01.34.92.74,1.85.44,2.9Z"/><path class="cls-1" d="m229.92,62.5c-.01.11-.01.21-.01.32-.01.17-.03.36-.03.54-.01.12-.01.25-.03.38-.35-.04-.71-.07-1.07-.09-.03-.12-.07-.23-.09-.35-.09-.36-.19-.72-.28-1.09-.07-.28-.13-.56-.21-.84.58.38,1.15.76,1.73,1.14Z"/><path class="cls-1" d="m227.69,66.99c-.22-.95-.35-1.89.04-2.83.15-.01.31,0,.46.01-.01.93-.02,1.86-.03,2.79-.15,0-.31.02-.46.02Z"/><path class="cls-1" d="m87.71,261.36c-.2.03-.38.11-.55.23-.51.31-.99.8-1.69.28.05-.13.05-.27.03-.38-.12-.5-.91-.79-.98-1.31-.03-.17.03-.39.23-.64.98.62,1.97,1.22,2.96,1.82Z"/><path class="cls-1" d="m111.95,155.29c-.77.44.41,1.62-.61,1.83-.53.11-1.15-.65-1.02-1.08.19-.67.81-1.19,1.66-.66,0,0-.04-.09-.04-.09Z"/><path class="cls-1" d="m134.47,325.83c0,.35-.01.7-.02,1.05-.81,0-1.58-.11-2.27-.56.56-1.14,1.56-.21,2.3-.49Z"/></g></svg>